<?xml version="1.0" encoding="utf-8"?>
<!-- Generator: Adobe Illustrator 19.2.1, SVG Export Plug-In . SVG Version: 6.00 Build 0)  -->
<!DOCTYPE svg PUBLIC "-//W3C//DTD SVG 1.1//EN" "http://www.w3.org/Graphics/SVG/1.1/DTD/svg11.dtd">
<svg version="1.1" id="Layer_1" xmlns="http://www.w3.org/2000/svg" xmlns:xlink="http://www.w3.org/1999/xlink" x="0px" y="0px"
	 viewBox="0 0 645.1 373.2" style="enable-background:new 0 0 645.1 373.2;" xml:space="preserve">
<metadata><?xpacket begin="﻿" id="W5M0MpCehiHzreSzNTczkc9d"?>
<x:xmpmeta xmlns:x="adobe:ns:meta/" x:xmptk="Adobe XMP Core 5.6-c111 79.158366, 2015/09/25-01:12:00        ">
   <rdf:RDF xmlns:rdf="http://www.w3.org/1999/02/22-rdf-syntax-ns#">
      <rdf:Description rdf:about=""/>
   </rdf:RDF>
</x:xmpmeta>
                                                                                                    
                                                                                                    
                                                                                                    
                                                                                                    
                                                                                                    
                                                                                                    
                                                                                                    
                                                                                                    
                                                                                                    
                                                                                                    
                                                                                                    
                                                                                                    
                                                                                                    
                                                                                                    
                                                                                                    
                                                                                                    
                                                                                                    
                                                                                                    
                                                                                                    
                                                                                                    
                           
<?xpacket end="w"?></metadata>
<style type="text/css">
	.st0{clip-path:url(#SVGID_2_);fill:url(#SVGID_3_);}
	.st1{clip-path:url(#SVGID_5_);fill:url(#SVGID_6_);}
</style>
<g>
	<defs>
		<path id="SVGID_1_" d="M403.8,320.5c-8.3,0-17.4,2.8-26.2,8.5l-69.3,45.1h136l-9.6-30.6C430.1,328.7,418.1,320.5,403.8,320.5
			C403.8,320.5,403.8,320.5,403.8,320.5 M105.9,340.6l-0.5,1.9c-3,11.7,0.4,22.9,8.3,31.7h85.7c-1.8-2.9-4.5-6.1-8.2-9.4L154,330.9
			c-8.5-7.7-17.2-11.5-24.9-11.5C118.3,319.4,109.5,326.7,105.9,340.6 M463.2,342.8l9.8,31.3h175.2v-29.1l-143.8-32.8
			c-5.2-1.2-10.1-1.8-14.6-1.8C468.7,310.5,457.1,323.3,463.2,342.8 M272.4,301.6l-9.9,47.9c-3.2,15.3,2,23.7,12.4,23.7
			c5.9,0,13.5-2.7,22.3-8.4l71.8-46.8c24-15.7,19.2-34.4-10.7-41.6l-22.5-5.4c-5.4-1.3-10.7-1.9-15.9-1.9
			C296.4,269.1,276.5,281.9,272.4,301.6 M208.9,270.8l-30.3,7.4c-29.9,7.3-37.7,28.5-17.4,47l37.2,33.9c8.4,7.7,16.9,11.4,24.3,11.4
			c10.4,0,18.7-7.4,21.6-21.5l9.9-47.9c4.1-19.7-8.8-32.4-30-32.4C219.5,268.8,214.3,269.5,208.9,270.8 M201.1,139.1
			c-7.3,0-14.7,5.7-20.3,17.1l-37.5,76.3c-9,18.4-0.8,30.1,18.4,30.1c4.6,0,9.8-0.7,15.6-2.1l30.3-7.4c29.9-7.3,45.3-32,34.2-54.8
			l-20.5-42.1C215.8,144.8,208.5,139.1,201.1,139.1C201.2,139.1,201.2,139.1,201.1,139.1 M322.1,143.3L302,195.9
			c-9,23.4,8.2,48.4,38.1,55.6l22.5,5.4c5.7,1.4,10.8,2,15.4,2c19.6,0,28.3-12,19.7-30.5l-39.9-86c-5.3-11.3-11.8-16.9-18.2-16.9
			C333,125.5,326.7,131.4,322.1,143.3 M277.8,101c-2.6,0-5.3,0.2-8.1,0.5l-0.7,0.1c-31,3.5-47.3,24.9-36.2,47.7l20.5,42.1
			c5.4,11.2,12.2,16.8,18.7,16.8c6.7,0,13.2-6,17.7-17.8l20.2-52.7C318,116.4,303.8,101,277.8,101C277.8,101,277.8,101,277.8,101
			 M586.4,45.6c-7,0-14.3,5.4-20.3,16.4l-91.3,165.6c-12.3,22.4,2.1,46.3,32.2,53.2L648.2,313V169.7L605.5,63.5
			C600.7,51.6,593.8,45.6,586.4,45.6C586.4,45.6,586.4,45.6,586.4,45.6 M637.2,61.5l11,27.3V30.2C636.1,35.4,631.3,46.8,637.2,61.5
			 M537.1,28.6c-5.2,0-11.8,1.3-19.4,4.1L406.2,73.1c-28.4,10.3-43,37.5-32.3,60.4l39.9,86c5.4,11.6,12.9,17.5,20.6,17.5
			c7.5,0,15.1-5.5,21.2-16.5l91.3-165.6C555.9,38.3,551.3,28.6,537.1,28.6C537.1,28.6,537.1,28.6,537.1,28.6 M0-3.2v377.4h20.9
			l-10.1-4.8c-3.9-1.8-7.5-3.3-10.8-4.2v-21.5c3.1,3,7.6,6,13.5,8.8l15.5,7.3c8.1,3.8,16.3,5.7,23.9,5.7c17.3,0,31.7-9.5,35.9-26.2
			l0.5-1.9c4.9-19.2-6.6-31.5-26.8-31.5c-4.9,0-10.3,0.7-16.1,2.2l-27.6,7.2C10.3,317.6,4,320.6,0,324v-19.1
			c1.1-0.2,2.2-0.5,3.2-0.8l27.5-7.2c29.7-7.8,30-21.1,0.6-29.6L0,258.1v-15.9l32.8,9.5c6.7,1.9,12.5,2.9,17.4,2.9
			c16.6,0,22.3-10.5,12.2-27.6L0,121.3V87.2l81.6,138.3c6.4,10.9,14.5,16.3,22.3,16.3c8.2,0,16.1-5.8,21.8-17.4l37.5-76.3
			c11.2-22.8-3.3-49.1-32.2-58.5l-107.9-35C16,52.2,9.8,51.1,4.7,51.1c-1.7,0-3.3,0.1-4.7,0.4V8.9c3.8,8,12.3,14.9,25.2,19.1
			l107.9,35c6.7,2.2,12.9,3.2,18.4,3.2c18.4,0,29.4-11.4,25.9-30l-7.4-39.4H0z M191.5-3.2l7.6,40.6c4.1,22,28.7,38,56.6,38
			c2.7,0,5.4-0.1,8.1-0.4l0.7-0.1c31-3.5,43.8-23.7,28.3-44.8L268.8-3.2H191.5z M291.4-3.2L309.1,21c7.6,10.4,17.3,15.6,26.8,15.6
			c9.9,0,19.7-5.6,26.8-16.7l15-23.2H291.4z M398.5-3.2L382,22.4c-10.2,15.8-6.8,25.1,6.6,25.1c5.1,0,11.7-1.3,19.5-4.2L519.5,3
			c4.5-1.6,8.8-3.7,12.8-6.2H398.5z"/>
	</defs>
	<clipPath id="SVGID_2_">
		<use xlink:href="#SVGID_1_"  style="overflow:visible;"/>
	</clipPath>
	
		<linearGradient id="SVGID_3_" gradientUnits="userSpaceOnUse" x1="-108.0803" y1="399.32" x2="-107.0803" y2="399.32" gradientTransform="matrix(660.9045 0 0 -660.9045 71425.7344 264097.875)">
		<stop  offset="0" style="stop-color:#F48120"/>
		<stop  offset="1" style="stop-color:#EC1C24"/>
	</linearGradient>
	<rect y="-3.2" class="st0" width="648.2" height="377.4"/>
</g>
<g>
	<defs>
		<path id="SVGID_4_" d="M262.6,349.5l9.9-47.9c4.1-19.7,24-32.5,47.5-32.5c5.2,0,10.5,0.6,15.9,1.9l22.5,5.4
			c29.9,7.2,34.7,25.9,10.7,41.6l-71.8,46.8c-8.7,5.7-16.3,8.4-22.3,8.4C264.6,373.2,259.4,364.8,262.6,349.5 M198.4,359.2
			l-37.2-33.9c-20.3-18.5-12.5-39.7,17.4-47l30.3-7.4c5.5-1.3,10.6-2,15.3-2c21.2,0,34.1,12.7,30,32.4l-9.9,47.9
			c-2.9,14.1-11.2,21.5-21.6,21.5C215.3,370.6,206.8,366.9,198.4,359.2 M143.4,232.5l37.5-76.3c5.6-11.4,12.9-17.1,20.3-17.1
			c7.3,0,14.7,5.7,20.2,17.1l20.5,42.1c11.1,22.8-4.3,47.4-34.2,54.8l-30.3,7.4c-5.8,1.4-11,2.1-15.6,2.1
			C142.5,262.6,134.3,250.8,143.4,232.5 M362.6,257l-22.5-5.4c-29.9-7.2-47.1-32.2-38.1-55.6l20.2-52.7
			c4.5-11.8,10.9-17.8,17.4-17.8c6.4,0,12.9,5.6,18.2,16.9l39.9,86c8.6,18.6-0.1,30.5-19.7,30.5C373.4,259,368.3,258.3,362.6,257
			 M253.3,191.3l-20.5-42.1c-11.1-22.8,5.2-44.3,36.2-47.7l0.7-0.1c2.8-0.3,5.5-0.5,8.1-0.5c26,0,40.2,15.4,32.1,36.6l-20.2,52.7
			c-4.5,11.9-11,17.8-17.7,17.8C265.5,208.1,258.8,202.5,253.3,191.3 M413.8,219.4l-39.9-86c-10.6-22.9,3.9-50.1,32.3-60.4
			l111.5-40.4c7.6-2.8,14.2-4.1,19.4-4.1c14.3,0,18.9,9.7,9.8,26.1l-91.3,165.6c-6.1,11-13.7,16.5-21.2,16.5
			C426.7,236.9,419.2,231.1,413.8,219.4 M532.3-3.2c-4,2.5-8.3,4.5-12.8,6.2L408,43.3c-7.8,2.8-14.4,4.2-19.5,4.2
			c-13.4,0-16.8-9.3-6.6-25.1l16.6-25.7h-20.9l-15,23.2c-7.2,11.1-16.9,16.7-26.8,16.7c-9.5,0-19.2-5.2-26.8-15.6L291.4-3.2h-22.7
			L292.9,30c15.4,21.2,2.7,41.4-28.3,44.8l-0.7,0.1c-2.7,0.3-5.4,0.4-8.1,0.4c-27.8,0-52.4-16-56.6-38l-7.6-40.6h-21.6l7.4,39.4
			c3.5,18.5-7.5,30-25.9,30c-5.5,0-11.7-1-18.4-3.2L25.2,28C12.3,23.8,3.8,16.9,0,8.9v42.6c1.4-0.2,3-0.4,4.7-0.4
			c5.1,0,11.3,1.1,18.5,3.5l107.9,35c28.9,9.4,43.4,35.7,32.2,58.5l-37.5,76.3c-5.7,11.6-13.6,17.4-21.8,17.4
			c-7.9,0-15.9-5.4-22.3-16.3L0,87.2v34.1l62.4,105.6c10.1,17.1,4.5,27.6-12.2,27.6c-4.9,0-10.8-0.9-17.4-2.9L0,242.2v15.9l31.4,9.1
			c29.4,8.5,29.1,21.8-0.6,29.6l-27.5,7.2c-1.1,0.3-2.1,0.5-3.2,0.8V324c4-3.4,10.3-6.4,18.8-8.6l27.6-7.2
			c5.8-1.5,11.2-2.2,16.1-2.2c20.2,0,31.7,12.3,26.8,31.5l-0.5,1.9c-4.2,16.6-18.6,26.2-35.9,26.2c-7.6,0-15.7-1.8-23.9-5.7
			l-15.5-7.3c-5.9-2.8-10.4-5.8-13.5-8.8v21.5c3.3,1,6.9,2.4,10.8,4.2l10.1,4.8h92.8c-7.9-8.8-11.2-20-8.3-31.7l0.5-1.9
			c3.6-13.9,12.4-21.2,23.2-21.2c7.7,0,16.4,3.7,24.9,11.5l37.2,33.9c3.7,3.3,6.4,6.5,8.2,9.4h109l69.3-45.1
			c8.8-5.8,17.9-8.5,26.2-8.5c14.3,0,26.3,8.1,31,23.1l9.6,30.6h28.7l-9.8-31.3c-6.1-19.6,5.4-32.3,26.6-32.3
			c4.5,0,9.4,0.6,14.6,1.8l143.8,32.8V313L507,280.8c-30.1-6.9-44.6-30.8-32.2-53.2L566.1,62c6-10.9,13.3-16.4,20.3-16.4
			c7.3,0,14.3,6,19.1,17.9l42.7,106.2V88.8l-11-27.3c-5.9-14.7-1.1-26.1,11-31.3V-3.2H532.3z"/>
	</defs>
	<clipPath id="SVGID_5_">
		<use xlink:href="#SVGID_4_"  style="overflow:visible;"/>
	</clipPath>
	
		<linearGradient id="SVGID_6_" gradientUnits="userSpaceOnUse" x1="-108.0803" y1="399.32" x2="-107.0803" y2="399.32" gradientTransform="matrix(660.9045 0 0 -660.9045 71425.7344 264097.875)">
		<stop  offset="0" style="stop-color:#E87E24"/>
		<stop  offset="1" style="stop-color:#E12226"/>
	</linearGradient>
	<rect y="-3.2" class="st1" width="648.2" height="377.4"/>
</g>
</svg>
