<?xml version="1.0" encoding="utf-8"?>
<!-- Generator: Adobe Illustrator 16.0.0, SVG Export Plug-In . SVG Version: 6.00 Build 0)  -->
<!DOCTYPE svg PUBLIC "-//W3C//DTD SVG 1.1//EN" "http://www.w3.org/Graphics/SVG/1.1/DTD/svg11.dtd">
<svg version="1.1" id="Layer_1" xmlns="http://www.w3.org/2000/svg" xmlns:xlink="http://www.w3.org/1999/xlink" x="0px" y="0px"
	 width="570.195px" height="186.64px" viewBox="0 0 570.195 186.64" enable-background="new 0 0 570.195 186.64"
	 xml:space="preserve">
<metadata><?xpacket begin="﻿" id="W5M0MpCehiHzreSzNTczkc9d"?>
<x:xmpmeta xmlns:x="adobe:ns:meta/" x:xmptk="Adobe XMP Core 5.3-c011 66.145661, 2012/02/06-14:56:27        ">
   <rdf:RDF xmlns:rdf="http://www.w3.org/1999/02/22-rdf-syntax-ns#">
      <rdf:Description rdf:about=""
            xmlns:xmp="http://ns.adobe.com/xap/1.0/"
            xmlns:xmpGImg="http://ns.adobe.com/xap/1.0/g/img/">
         <xmp:CreatorTool>Adobe Illustrator CS6 (Macintosh)</xmp:CreatorTool>
         <xmp:CreateDate>2016-11-10T17:14:24-05:00</xmp:CreateDate>
         <xmp:Thumbnails>
            <rdf:Alt>
               <rdf:li rdf:parseType="Resource">
                  <xmpGImg:width>256</xmpGImg:width>
                  <xmpGImg:height>84</xmpGImg:height>
                  <xmpGImg:format>JPEG</xmpGImg:format>
                  <xmpGImg:image>/9j/4AAQSkZJRgABAgEASABIAAD/7QAsUGhvdG9zaG9wIDMuMAA4QklNA+0AAAAAABAASAAAAAEA&#xA;AQBIAAAAAQAB/+4ADkFkb2JlAGTAAAAAAf/bAIQABgQEBAUEBgUFBgkGBQYJCwgGBggLDAoKCwoK&#xA;DBAMDAwMDAwQDA4PEA8ODBMTFBQTExwbGxscHx8fHx8fHx8fHwEHBwcNDA0YEBAYGhURFRofHx8f&#xA;Hx8fHx8fHx8fHx8fHx8fHx8fHx8fHx8fHx8fHx8fHx8fHx8fHx8fHx8fHx8f/8AAEQgAVAEAAwER&#xA;AAIRAQMRAf/EAaIAAAAHAQEBAQEAAAAAAAAAAAQFAwIGAQAHCAkKCwEAAgIDAQEBAQEAAAAAAAAA&#xA;AQACAwQFBgcICQoLEAACAQMDAgQCBgcDBAIGAnMBAgMRBAAFIRIxQVEGE2EicYEUMpGhBxWxQiPB&#xA;UtHhMxZi8CRygvElQzRTkqKyY3PCNUQnk6OzNhdUZHTD0uIIJoMJChgZhJRFRqS0VtNVKBry4/PE&#xA;1OT0ZXWFlaW1xdXl9WZ2hpamtsbW5vY3R1dnd4eXp7fH1+f3OEhYaHiImKi4yNjo+Ck5SVlpeYmZ&#xA;qbnJ2en5KjpKWmp6ipqqusra6voRAAICAQIDBQUEBQYECAMDbQEAAhEDBCESMUEFURNhIgZxgZEy&#xA;obHwFMHR4SNCFVJicvEzJDRDghaSUyWiY7LCB3PSNeJEgxdUkwgJChgZJjZFGidkdFU38qOzwygp&#xA;0+PzhJSktMTU5PRldYWVpbXF1eX1RlZmdoaWprbG1ub2R1dnd4eXp7fH1+f3OEhYaHiImKi4yNjo&#xA;+DlJWWl5iZmpucnZ6fkqOkpaanqKmqq6ytrq+v/aAAwDAQACEQMRAD8A9U4q7FXYq7FXYq7FXYq7&#xA;FXYq7FXYq7FXYq7FXYq7FXYq7FXYq7FXYq7FXYq7FXYq7FXYq7FXYq7FXYq7FXYq7FXYq7FXYq7F&#xA;XYq7FXYq7FXYq7FXYq7FXYq7FXYq7FXYq7FXYq7FXYq7FXYq7FXYq7FXYq7FXYq7FXYq7FXYq7FX&#xA;Yq7FXYq7FXYq7FXYq7FXYq7FXYq7FXYq7FXYq7FXYq7FXYq7FXYq7FXYq7FXYq7FXYq7FXYq7FXY&#xA;q7FXYq7FXYq7FXYq7FXYq7FXYq7FXYq7FXYq7FXYq7FXYq7FXYq7FXYq7FXYq7FXYq7FXYq7FXYq&#xA;7FXYq7FXYq7FXYq7FXYq7FXYq7FXYq7FXYq7FXYq7FXYq7FXYq7FXYq7FXYq7FXYq7FXYq7FXYq7&#xA;FXYq7FXYq7FXYq7FXYq7FXYq7FXYq7FXYq7FXYq7FXYq7FXYq7FXYq7FXYq7FXYq7FXYq7FXYq7F&#xA;XYq7FXYq7FXYq7FXYq7FXYq7FXYq7FXYq7FXYq7FXYq7FXYq7FXYq7FXYq7FXYq7FXYq7FXYq7FX&#xA;Yq7FXYq7FXYq7FXYq7FXYq7FXYq7FXYq7FXYq7FXYq7FXYq7FXYq7FXYq7FXYq7FXYq7FXYq7FXY&#xA;q7FXYq7FXYq7FXYq7FXYq7FXYq7FXYq7FXYq7FXYq7FXYq7FXYq7FXYq7FXYq7FXYq7FXYq7FXYq&#xA;7FXYq7FXYq7FXYq7FXYq7FXYq7FXYq7FXYq7FXYq7FXYq7FXYq7FXYq7FXYq7FXYq7FXYq7FXYq7&#xA;FXYq7FXYq7FXYq7FXYq7FXYq7FXYq7FXYq7FXYq7FXYq7FXYq7FXYq7FXYq7FXYq7FXYq7FXYq7F&#xA;XYq7FXYq7FXYq7FXYq7FXYq7FX//2Q==</xmpGImg:image>
               </rdf:li>
            </rdf:Alt>
         </xmp:Thumbnails>
      </rdf:Description>
      <rdf:Description rdf:about=""
            xmlns:xmpTPg="http://ns.adobe.com/xap/1.0/t/pg/"
            xmlns:stDim="http://ns.adobe.com/xap/1.0/sType/Dimensions#"
            xmlns:xmpG="http://ns.adobe.com/xap/1.0/g/">
         <xmpTPg:MaxPageSize rdf:parseType="Resource">
            <stDim:w>570.195312</stDim:w>
            <stDim:h>186.639648</stDim:h>
            <stDim:unit>Pixels</stDim:unit>
         </xmpTPg:MaxPageSize>
         <xmpTPg:NPages>1</xmpTPg:NPages>
         <xmpTPg:HasVisibleTransparency>False</xmpTPg:HasVisibleTransparency>
         <xmpTPg:HasVisibleOverprint>False</xmpTPg:HasVisibleOverprint>
         <xmpTPg:SwatchGroups>
            <rdf:Seq>
               <rdf:li rdf:parseType="Resource">
                  <xmpG:groupName>Default Swatch Group</xmpG:groupName>
                  <xmpG:groupType>0</xmpG:groupType>
               </rdf:li>
            </rdf:Seq>
         </xmpTPg:SwatchGroups>
      </rdf:Description>
      <rdf:Description rdf:about=""
            xmlns:dc="http://purl.org/dc/elements/1.1/">
         <dc:format>image/svg+xml</dc:format>
      </rdf:Description>
   </rdf:RDF>
</x:xmpmeta>
                                                                                                    
                                                                                                    
                                                                                                    
                                                                                                    
                                                                                                    
                                                                                                    
                                                                                                    
                                                                                                    
                                                                                                    
                                                                                                    
                                                                                                    
                                                                                                    
                                                                                                    
                                                                                                    
                                                                                                    
                                                                                                    
                                                                                                    
                                                                                                    
                                                                                                    
                                                                                                    
                           
<?xpacket end="w"?>
	</metadata>
<rect x="183.351" y="94.964" fill="#FFFFFF" width="2.055" height="16.855"/>
<polygon fill="#FFFFFF" points="196.505,94.964 206.372,107.708 206.372,94.964 208.427,94.964 208.427,111.819 207.194,111.819 
	196.917,99.075 196.917,111.819 194.861,111.819 194.861,94.964 "/>
<g>
	<g>
		<defs>
			<rect id="SVGID_1_" width="570.195" height="186.64"/>
		</defs>
		<clipPath id="SVGID_2_">
			<use xlink:href="#SVGID_1_"  overflow="visible"/>
		</clipPath>
		<path clip-path="url(#SVGID_2_)" fill="#FFFFFF" d="M224.049,96.608c-2.056,0-4.522,0.822-4.522,2.878
			c0,1.645,2.055,2.467,4.522,2.878c3.289,0.411,6.578,1.233,6.578,4.933c0,3.7-3.7,4.934-6.989,4.934
			c-2.878,0-5.755-1.233-6.989-3.7l1.645-0.822c1.233,2.056,3.289,2.878,5.344,2.878s4.522-0.822,4.522-3.289
			c0-2.056-2.466-2.878-4.933-2.878c-2.467-0.821-5.755-1.644-5.755-4.933s3.7-4.522,6.578-4.522c2.466,0,4.933,0.411,6.167,2.878
			l-1.645,0.822C227.749,97.431,225.694,96.608,224.049,96.608"/>
	</g>
</g>
<polygon fill="#FFFFFF" points="236.382,97.02 236.382,94.964 249.949,94.964 249.949,97.02 244.193,97.02 244.193,111.819 
	242.138,111.819 242.138,97.02 "/>
<rect x="257.348" y="94.964" fill="#FFFFFF" width="2.056" height="16.855"/>
<polygon fill="#FFFFFF" points="267.215,97.02 267.215,94.964 280.37,94.964 280.37,97.02 275.025,97.02 275.025,111.819 
	272.97,111.819 272.97,97.02 "/>
<g>
	<g>
		<defs>
			<rect id="SVGID_3_" width="570.195" height="186.64"/>
		</defs>
		<clipPath id="SVGID_4_">
			<use xlink:href="#SVGID_3_"  overflow="visible"/>
		</clipPath>
		<path clip-path="url(#SVGID_4_)" fill="#FFFFFF" d="M301.336,94.964v9.866c0,4.522-3.289,6.989-6.578,6.989
			c-3.7,0-6.988-2.467-6.988-6.989v-9.866h2.055v9.866c0,3.289,2.056,4.934,4.934,4.934c2.467,0,4.522-1.645,4.522-4.934v-9.866
			H301.336L301.336,94.964z"/>
	</g>
</g>
<polygon fill="#FFFFFF" points="307.914,97.02 307.914,94.964 321.48,94.964 321.48,97.02 315.724,97.02 315.724,111.819 
	313.668,111.819 313.668,97.02 "/>
<g>
	<g>
		<defs>
			<rect id="SVGID_5_" width="570.195" height="186.64"/>
		</defs>
		<clipPath id="SVGID_6_">
			<use xlink:href="#SVGID_5_"  overflow="visible"/>
		</clipPath>
		<path clip-path="url(#SVGID_6_)" fill="#FFFFFF" d="M353.134,103.187c0-3.289-2.056-6.167-6.166-6.167h-4.111v12.744h4.111
			C351.49,109.764,353.134,106.475,353.134,103.187 M340.801,94.964h6.167c5.755,0,8.222,4.111,8.222,8.223
			c0,4.11-2.467,8.633-8.222,8.633h-6.167V94.964L340.801,94.964z"/>
	</g>
</g>
<rect x="360.535" y="94.964" fill="#FFFFFF" width="1.644" height="6.167"/>
<path fill="#FFFFFF" d="M378.211,90.442h2.467l0,0l-2.467,2.878h-1.645l0,0L378.211,90.442z M371.634,94.964h11.922v2.056h-9.866
	v5.345h9.455v2.055h-9.455v5.756h9.866v1.645h-11.922V94.964z"/>
<g>
	<g>
		<defs>
			<rect id="SVGID_7_" width="570.195" height="186.64"/>
		</defs>
		<clipPath id="SVGID_8_">
			<use xlink:href="#SVGID_7_"  overflow="visible"/>
		</clipPath>
		<path clip-path="url(#SVGID_8_)" fill="#FFFFFF" d="M404.521,103.187c0-3.289-2.055-6.167-6.166-6.167h-4.111v12.744h4.111
			C402.467,109.764,404.521,106.475,404.521,103.187 M392.189,94.964h6.167c5.755,0,8.222,4.111,8.222,8.223
			c0,4.11-2.467,8.633-8.222,8.633h-6.167V94.964L392.189,94.964z"/>
	</g>
	<g>
		<defs>
			<rect id="SVGID_9_" width="570.195" height="186.64"/>
		</defs>
		<clipPath id="SVGID_10_">
			<use xlink:href="#SVGID_9_"  overflow="visible"/>
		</clipPath>
		<path clip-path="url(#SVGID_10_)" fill="#FFFFFF" d="M427.955,94.964v9.866c0,4.522-3.289,6.989-6.578,6.989
			c-3.699,0-6.988-2.467-6.988-6.989v-9.866h2.055v9.866c0,3.289,2.057,4.934,4.934,4.934c2.467,0,4.521-1.645,4.521-4.934v-9.866
			H427.955L427.955,94.964z"/>
	</g>
	<g>
		<defs>
			<rect id="SVGID_11_" width="570.195" height="186.64"/>
		</defs>
		<clipPath id="SVGID_12_">
			<use xlink:href="#SVGID_11_"  overflow="visible"/>
		</clipPath>
		<path clip-path="url(#SVGID_12_)" fill="#FFFFFF" d="M444.398,112.23c-5.756,0-8.633-4.111-8.633-8.633
			c0-4.522,2.877-8.634,8.633-8.634c2.055,0,4.521,0.822,6.166,2.467l-1.232,1.233c-1.234-1.233-2.879-2.056-4.521-2.056
			c-4.523,0-6.578,3.289-6.578,6.578c0,3.288,2.055,6.577,6.578,6.577c1.643,0,3.287-0.822,4.932-2.056l1.645,1.233
			C448.92,111.408,446.865,112.23,444.398,112.23"/>
	</g>
</g>
<path fill="#FFFFFF" d="M464.953,97.02l-4.111,9.044h7.812L464.953,97.02z M465.775,94.964l7.4,16.855h-2.055l-1.645-3.7h-9.457
	l-1.643,3.7h-2.467l7.398-16.855H465.775z"/>
<polygon fill="#FFFFFF" points="477.287,97.02 477.287,94.964 490.441,94.964 490.441,97.02 485.098,97.02 485.098,111.819 
	483.043,111.819 483.043,97.02 "/>
<rect x="498.252" y="94.964" fill="#FFFFFF" width="2.057" height="16.855"/>
<g>
	<g>
		<defs>
			<rect id="SVGID_13_" width="570.195" height="186.64"/>
		</defs>
		<clipPath id="SVGID_14_">
			<use xlink:href="#SVGID_13_"  overflow="visible"/>
		</clipPath>
		<path clip-path="url(#SVGID_14_)" fill="#FFFFFF" d="M516.342,96.608c-4.111,0-6.578,3.289-6.578,6.578
			c0,3.288,2.055,6.577,6.578,6.577c4.521,0,6.166-3.289,6.166-6.577C522.918,99.897,520.863,96.608,516.342,96.608
			 M524.975,103.598c0,4.521-2.879,8.633-8.633,8.633c-5.756,0-8.635-4.111-8.635-8.633c0-4.934,3.289-8.634,8.635-8.634
			C522.096,94.964,524.975,99.075,524.975,103.598"/>
	</g>
</g>
<polygon fill="#FFFFFF" points="534.018,94.964 544.295,107.708 544.295,94.964 546.352,94.964 546.352,111.819 544.707,111.819 
	534.84,99.075 534.84,111.819 532.785,111.819 532.785,94.964 "/>
<g>
	<g>
		<defs>
			<rect id="SVGID_15_" width="570.195" height="186.64"/>
		</defs>
		<clipPath id="SVGID_16_">
			<use xlink:href="#SVGID_15_"  overflow="visible"/>
		</clipPath>
		<path clip-path="url(#SVGID_16_)" fill="#FFFFFF" d="M193.217,127.441c-1.233-0.822-2.467-1.233-4.111-1.233
			c-1.233,0-2.467,0.411-2.467,1.233c0,1.232,1.233,1.232,2.878,1.644c3.289,0.411,6.577,1.645,6.577,5.345s-3.7,5.344-7.399,5.344
			c-2.878,0-5.345-0.41-7.4-2.877l2.466-2.878c1.645,1.645,3.289,2.056,4.934,2.056c1.644,0,2.466-0.411,2.466-1.645
			c0-0.822-0.822-1.233-2.877-1.645c-3.7-0.411-6.989-1.233-6.989-5.344c0-3.7,3.289-4.934,6.989-4.934
			c2.466,0,4.522,0.411,6.167,2.056L193.217,127.441z"/>
	</g>
	<g>
		<defs>
			<rect id="SVGID_17_" width="570.195" height="186.64"/>
		</defs>
		<clipPath id="SVGID_18_">
			<use xlink:href="#SVGID_17_"  overflow="visible"/>
		</clipPath>
		<path clip-path="url(#SVGID_18_)" fill="#FFFFFF" d="M211.716,126.619c-2.878,0-4.522,2.055-4.522,4.521
			c0,2.878,2.055,4.522,4.522,4.522c2.877,0,4.522-2.056,4.522-4.522C216.238,128.263,214.594,126.619,211.716,126.619
			 M211.716,140.186c-5.344,0-9.456-3.289-9.456-8.634c0-5.344,3.7-8.633,9.456-8.633c5.344,0,9.455,3.289,9.455,8.633
			C221.171,136.896,217.472,140.186,211.716,140.186"/>
	</g>
	<g>
		<defs>
			<rect id="SVGID_19_" width="570.195" height="186.64"/>
		</defs>
		<clipPath id="SVGID_20_">
			<use xlink:href="#SVGID_19_"  overflow="visible"/>
		</clipPath>
		<path clip-path="url(#SVGID_20_)" fill="#FFFFFF" d="M243.782,137.308c-2.056,2.056-4.111,2.466-6.578,2.466
			c-6.578,0-9.044-4.11-9.044-8.633c0-4.11,2.878-9.044,9.044-9.044c2.466,0,4.522,0.822,6.578,2.467l-2.878,2.878
			c-1.233-1.233-2.467-1.645-3.7-1.645c-3.289,0-4.522,2.466-4.522,4.933c0,2.056,1.233,4.522,4.522,4.522
			c1.233,0,2.877-0.411,4.111-1.645L243.782,137.308z"/>
	</g>
</g>
<rect x="251.593" y="122.919" fill="#FFFFFF" width="4.522" height="16.854"/>
<g>
	<g>
		<defs>
			<rect id="SVGID_21_" width="570.195" height="186.64"/>
		</defs>
		<clipPath id="SVGID_22_">
			<use xlink:href="#SVGID_21_"  overflow="visible"/>
		</clipPath>
		<path clip-path="url(#SVGID_22_)" fill="#FFFFFF" d="M272.559,126.619c-2.878,0-4.522,2.055-4.522,4.521
			c0,2.878,2.055,4.522,4.522,4.522c2.877,0,4.522-2.056,4.522-4.522C277.081,128.263,275.437,126.619,272.559,126.619
			 M272.559,140.186c-5.344,0-9.456-3.289-9.456-8.634c0-5.344,3.7-8.633,9.456-8.633c5.344,0,9.455,3.289,9.455,8.633
			C282.014,136.896,278.314,140.186,272.559,140.186"/>
	</g>
</g>
<rect x="291.058" y="129.907" fill="#FFFFFF" width="9.456" height="3.7"/>
<path fill="#FFFFFF" d="M320.658,117.574h-4.522l-1.645,3.7l0,0h3.7L320.658,117.574L320.658,117.574z M323.125,139.773h-13.155
	v-16.854h13.155v4.111h-8.223v2.466h7.812v3.7h-7.812v2.467h8.634v4.11H323.125z"/>
<polygon fill="#FFFFFF" points="346.146,129.496 341.624,134.841 340.801,134.841 336.691,129.496 336.691,139.773 332.168,139.773 
	332.168,122.919 337.102,122.919 341.212,128.674 345.735,122.919 350.667,122.919 350.667,139.773 346.146,139.773 "/>
<g>
	<g>
		<defs>
			<rect id="SVGID_23_" width="570.195" height="186.64"/>
		</defs>
		<clipPath id="SVGID_24_">
			<use xlink:href="#SVGID_23_"  overflow="visible"/>
		</clipPath>
		<path clip-path="url(#SVGID_24_)" fill="#FFFFFF" d="M367.523,126.619c-2.878,0-4.522,2.055-4.522,4.521
			c0,2.878,2.056,4.522,4.522,4.522c2.878,0,4.522-2.056,4.522-4.522C372.045,128.263,370.401,126.619,367.523,126.619
			 M367.523,140.186c-5.345,0-9.455-3.289-9.455-8.634c0-5.344,3.7-8.633,9.455-8.633c5.345,0,9.455,3.289,9.455,8.633
			C376.978,136.896,373.279,140.186,367.523,140.186"/>
	</g>
</g>
<polygon fill="#FFFFFF" points="388.078,126.619 383.145,126.619 383.145,122.919 397.534,122.919 397.534,126.619 392.6,126.619 
	392.6,139.773 388.078,139.773 "/>
<rect x="405.344" y="122.919" fill="#FFFFFF" width="4.523" height="16.854"/>
<g>
	<g>
		<defs>
			<rect id="SVGID_25_" width="570.195" height="186.64"/>
		</defs>
		<clipPath id="SVGID_26_">
			<use xlink:href="#SVGID_25_"  overflow="visible"/>
		</clipPath>
		<path clip-path="url(#SVGID_26_)" fill="#FFFFFF" d="M427.955,126.619c-2.879,0-4.523,2.055-4.523,4.521
			c0,2.878,2.057,4.522,4.523,4.522c2.877,0,4.521-2.056,4.521-4.522C432.477,128.263,430.422,126.619,427.955,126.619
			 M427.955,140.186c-5.346,0-9.455-3.289-9.455-8.634c0-5.344,3.699-8.633,9.455-8.633c5.344,0,9.455,3.289,9.455,8.633
			C436.998,136.896,433.299,140.186,427.955,140.186"/>
	</g>
	<g>
		<defs>
			<rect id="SVGID_27_" width="570.195" height="186.64"/>
		</defs>
		<clipPath id="SVGID_28_">
			<use xlink:href="#SVGID_27_"  overflow="visible"/>
		</clipPath>
		<path clip-path="url(#SVGID_28_)" fill="#FFFFFF" d="M455.498,131.963c0-2.056,0-2.878,0-3.289v-5.755h4.934v16.854h-4.111
			l-6.988-9.044v3.7v5.344h-4.934v-16.854h4.111L455.498,131.963z"/>
	</g>
	<g>
		<defs>
			<rect id="SVGID_29_" width="570.195" height="186.64"/>
		</defs>
		<clipPath id="SVGID_30_">
			<use xlink:href="#SVGID_29_"  overflow="visible"/>
		</clipPath>
		<path clip-path="url(#SVGID_30_)" fill="#FFFFFF" d="M480.576,131.963c0-2.056,0-2.878,0-3.289v-5.755h4.932v16.854h-4.109
			l-6.99-9.044v3.7v5.344h-4.932v-16.854h4.109L480.576,131.963z"/>
	</g>
</g>
<polygon fill="#FFFFFF" points="508.119,139.773 494.963,139.773 494.963,122.919 507.707,122.919 507.707,127.03 499.486,127.03 
	499.486,129.085 507.297,129.085 507.297,133.196 499.486,133.196 499.486,135.663 508.119,135.663 "/>
<polygon fill="#FFFFFF" points="522.096,122.919 522.096,135.663 529.908,135.663 529.908,139.773 517.164,139.773 517.164,122.919 
	"/>
<polygon fill="#FFFFFF" points="541.83,122.919 541.83,135.663 550.051,135.663 550.051,139.773 537.307,139.773 537.307,122.919 
	"/>
<polygon fill="#FFFFFF" points="556.629,122.919 556.629,139.773 570.195,139.773 570.195,135.663 561.562,135.663 561.562,133.196 
	569.373,133.196 569.373,129.085 561.562,129.085 561.562,127.03 569.783,127.03 569.783,122.919 "/>
<g>
	<g>
		<defs>
			<rect id="SVGID_31_" width="570.195" height="186.64"/>
		</defs>
		<clipPath id="SVGID_32_">
			<use xlink:href="#SVGID_31_"  overflow="visible"/>
		</clipPath>
		<path clip-path="url(#SVGID_32_)" fill="#FFFFFF" d="M117.163,58.376L99.486,93.73c-4.522,9.045-16.033,13.155-25.488,9.456
			L38.643,89.62c-9.455-3.7-9.455-9.866,0-13.566l69.476-27.133C117.574,45.221,121.686,49.332,117.163,58.376 M86.331,136.896
			L86.331,136.896c-1.645,10.277-10.689,15.211-20.144,11.1l-17.266-6.989c-9.456-3.699-9.044-9.044,0.822-11.511l22.199-5.755
			C81.397,120.863,87.975,127.03,86.331,136.896 M24.666,112.642l-2.056-7.4c-2.877-9.455,2.878-14.388,12.333-10.688l35.354,13.566
			c9.456,3.7,9.044,8.633-0.822,11.511l-22.199,5.756C37.41,127.852,27.132,122.097,24.666,112.642 M106.063,19.733L59.198,3.7
			c-4.522,1.644-8.633,3.7-12.744,6.166l58.376,19.733c9.456,3.289,9.867,9.044,0.411,12.744L35.766,69.887
			c-9.456,3.7-19.322-1.233-21.789-11.1l-2.877-11.1C4.111,60.843,0.411,75.643,0.411,91.675c0,2.877,0,5.344,0.411,7.811
			c5.755-3.7,11.511-1.233,13.977,6.988l2.056,7.4c2.056,7.399-1.233,14.799-7.4,18.088c3.7,7.812,8.633,15.211,14.389,21.788
			c3.7-8.633,13.566-12.744,22.61-9.044l17.266,6.989c9.456,3.699,9.044,9.455-0.411,13.154l-19.321,6.578
			c2.466,1.645,4.933,2.878,7.399,4.111l15.211-5.345c9.455-3.289,20.555,1.645,23.844,11.1l2.056,4.934c0.822,0,2.055,0,2.877,0
			c2.878,0,5.344,0,8.222-0.411l-2.056-5.345c-3.7-9.455,1.645-15.622,11.511-13.978l31.655,5.345
			c2.877-1.645,5.344-3.7,8.222-5.345l-40.288-6.988c-9.866-1.645-16.855-11.1-15.21-20.966v-0.411
			c1.644-9.866,10.277-13.566,18.911-8.634l46.454,27.955c1.645-1.645,2.877-3.289,4.522-4.934l-46.865-27.954
			c-8.633-5.345-8.222-12.744,0.822-17.267l67.42-31.243c-0.411-2.056-0.822-4.111-1.233-6.167l-67.42,31.244
			c-9.044,4.11-13.155,0.411-8.633-8.633l17.677-35.355c4.522-9.044,16.444-14.8,26.311-12.744l24.666,4.933
			c-1.233-2.878-2.877-5.755-4.522-8.633l-16.033-3.289c-9.866-2.056-10.688-7.4-1.644-11.922l4.111-2.056
			c-2.467-2.466-5.344-4.933-8.222-7.399l0,0c-9.044,4.522-17.677,0-19.732-9.867l-0.411-1.233c-4.522-2.055-9.456-3.7-14.389-4.933
			l1.233,7.811C122.097,17.677,115.519,23.021,106.063,19.733"/>
	</g>
</g>
</svg>
