<?xml version="1.0" encoding="utf-8"?>
<!-- Generator: Adobe Illustrator 19.2.1, SVG Export Plug-In . SVG Version: 6.00 Build 0)  -->
<!DOCTYPE svg PUBLIC "-//W3C//DTD SVG 1.1//EN" "http://www.w3.org/Graphics/SVG/1.1/DTD/svg11.dtd">
<svg version="1.1" id="Layer_1" xmlns="http://www.w3.org/2000/svg" xmlns:xlink="http://www.w3.org/1999/xlink" x="0px" y="0px"
	 viewBox="0 0 194.6 68.3" style="enable-background:new 0 0 194.6 68.3;" xml:space="preserve">
<metadata><?xpacket begin="﻿" id="W5M0MpCehiHzreSzNTczkc9d"?>
<x:xmpmeta xmlns:x="adobe:ns:meta/" x:xmptk="Adobe XMP Core 5.6-c111 79.158366, 2015/09/25-01:12:00        ">
   <rdf:RDF xmlns:rdf="http://www.w3.org/1999/02/22-rdf-syntax-ns#">
      <rdf:Description rdf:about=""/>
   </rdf:RDF>
</x:xmpmeta>
                                                                                                    
                                                                                                    
                                                                                                    
                                                                                                    
                                                                                                    
                                                                                                    
                                                                                                    
                                                                                                    
                                                                                                    
                                                                                                    
                                                                                                    
                                                                                                    
                                                                                                    
                                                                                                    
                                                                                                    
                                                                                                    
                                                                                                    
                                                                                                    
                                                                                                    
                                                                                                    
                           
<?xpacket end="w"?></metadata>
<style type="text/css">
	.st0{fill:#FFFFFF;}
	.st1{clip-path:url(#SVGID_2_);fill:#FFFFFF;}
	.st2{clip-path:url(#SVGID_4_);fill:#FFFFFF;}
	.st3{clip-path:url(#SVGID_6_);fill:#FFFFFF;}
	.st4{clip-path:url(#SVGID_8_);fill:#FFFFFF;}
	.st5{clip-path:url(#SVGID_10_);fill:#FFFFFF;}
	.st6{clip-path:url(#SVGID_12_);fill:#FFFFFF;}
	.st7{clip-path:url(#SVGID_14_);fill:#FFFFFF;}
	.st8{clip-path:url(#SVGID_16_);fill:#FFFFFF;}
	.st9{clip-path:url(#SVGID_18_);fill:#FFFFFF;}
	.st10{clip-path:url(#SVGID_20_);fill:#FFFFFF;}
</style>
<rect x="72.9" y="34.9" class="st0" width="0.5" height="4.1"/>
<polygon class="st0" points="76.1,34.9 78.5,38 78.5,34.9 79,34.9 79,39 78.7,39 76.2,35.9 76.2,39 75.7,39 75.7,34.9 "/>
<g>
	<defs>
		<rect id="SVGID_1_" x="28.3" y="11.8" width="138.7" height="45.4"/>
	</defs>
	<clipPath id="SVGID_2_">
		<use xlink:href="#SVGID_1_"  style="overflow:visible;"/>
	</clipPath>
	<path class="st1" d="M82.8,35.3c-0.5,0-1.1,0.2-1.1,0.7c0,0.4,0.5,0.6,1.1,0.7c0.8,0.1,1.6,0.3,1.6,1.2c0,0.9-0.9,1.2-1.7,1.2
		c-0.7,0-1.4-0.3-1.7-0.9l0.4-0.2c0.3,0.5,0.8,0.7,1.3,0.7c0.5,0,1.1-0.2,1.1-0.8c0-0.5-0.6-0.7-1.2-0.7C82,37,81.2,36.8,81.2,36
		c0-0.8,0.9-1.1,1.6-1.1c0.6,0,1.2,0.1,1.5,0.7l-0.4,0.2C83.7,35.5,83.2,35.3,82.8,35.3"/>
</g>
<polygon class="st0" points="85.8,35.4 85.8,34.9 89.1,34.9 89.1,35.4 87.7,35.4 87.7,39 87.2,39 87.2,35.4 "/>
<rect x="90.9" y="34.9" class="st0" width="0.5" height="4.1"/>
<polygon class="st0" points="93.3,35.4 93.3,34.9 96.5,34.9 96.5,35.4 95.2,35.4 95.2,39 94.7,39 94.7,35.4 "/>
<g>
	<defs>
		<rect id="SVGID_3_" x="28.3" y="11.8" width="138.7" height="45.4"/>
	</defs>
	<clipPath id="SVGID_4_">
		<use xlink:href="#SVGID_3_"  style="overflow:visible;"/>
	</clipPath>
	<path class="st2" d="M101.6,34.9v2.4c0,1.1-0.8,1.7-1.6,1.7c-0.9,0-1.7-0.6-1.7-1.7v-2.4h0.5v2.4c0,0.8,0.5,1.2,1.2,1.2
		c0.6,0,1.1-0.4,1.1-1.2v-2.4L101.6,34.9L101.6,34.9z"/>
</g>
<polygon class="st0" points="103.2,35.4 103.2,34.9 106.5,34.9 106.5,35.4 105.1,35.4 105.1,39 104.6,39 104.6,35.4 "/>
<g>
	<defs>
		<rect id="SVGID_5_" x="28.3" y="11.8" width="138.7" height="45.4"/>
	</defs>
	<clipPath id="SVGID_6_">
		<use xlink:href="#SVGID_5_"  style="overflow:visible;"/>
	</clipPath>
	<path class="st3" d="M114.2,36.9c0-0.8-0.5-1.5-1.5-1.5h-1v3.1h1C113.8,38.5,114.2,37.7,114.2,36.9 M111.2,34.9h1.5c1.4,0,2,1,2,2
		c0,1-0.6,2.1-2,2.1h-1.5V34.9L111.2,34.9z"/>
</g>
<rect x="116" y="34.9" class="st0" width="0.4" height="1.5"/>
<path class="st0" d="M120.3,33.8h0.6v0l-0.6,0.7h-0.4v0L120.3,33.8z M118.7,34.9h2.9v0.5h-2.4v1.3h2.3v0.5h-2.3v1.4h2.4V39h-2.9
	V34.9z"/>
<g>
	<defs>
		<rect id="SVGID_7_" x="28.3" y="11.8" width="138.7" height="45.4"/>
	</defs>
	<clipPath id="SVGID_8_">
		<use xlink:href="#SVGID_7_"  style="overflow:visible;"/>
	</clipPath>
	<path class="st4" d="M126.7,36.9c0-0.8-0.5-1.5-1.5-1.5h-1v3.1h1C126.2,38.5,126.7,37.7,126.7,36.9 M123.7,34.9h1.5c1.4,0,2,1,2,2
		c0,1-0.6,2.1-2,2.1h-1.5V34.9L123.7,34.9z"/>
	<path class="st4" d="M132.4,34.9v2.4c0,1.1-0.8,1.7-1.6,1.7c-0.9,0-1.7-0.6-1.7-1.7v-2.4h0.5v2.4c0,0.8,0.5,1.2,1.2,1.2
		c0.6,0,1.1-0.4,1.1-1.2v-2.4L132.4,34.9L132.4,34.9z"/>
	<path class="st4" d="M136.4,39.1c-1.4,0-2.1-1-2.1-2.1c0-1.1,0.7-2.1,2.1-2.1c0.5,0,1.1,0.2,1.5,0.6l-0.3,0.3
		c-0.3-0.3-0.7-0.5-1.1-0.5c-1.1,0-1.6,0.8-1.6,1.6c0,0.8,0.5,1.6,1.6,1.6c0.4,0,0.8-0.2,1.2-0.5l0.4,0.3
		C137.5,38.9,137,39.1,136.4,39.1"/>
</g>
<path class="st0" d="M141.4,35.4l-1,2.2h1.9L141.4,35.4z M141.6,34.9l1.8,4.1h-0.5l-0.4-0.9h-2.3l-0.4,0.9h-0.6l1.8-4.1H141.6z"/>
<polygon class="st0" points="144.4,35.4 144.4,34.9 147.6,34.9 147.6,35.4 146.3,35.4 146.3,39 145.8,39 145.8,35.4 "/>
<rect x="149.5" y="34.9" class="st0" width="0.5" height="4.1"/>
<g>
	<defs>
		<rect id="SVGID_9_" x="28.3" y="11.8" width="138.7" height="45.4"/>
	</defs>
	<clipPath id="SVGID_10_">
		<use xlink:href="#SVGID_9_"  style="overflow:visible;"/>
	</clipPath>
	<path class="st5" d="M153.9,35.3c-1,0-1.6,0.8-1.6,1.6c0,0.8,0.5,1.6,1.6,1.6c1.1,0,1.5-0.8,1.5-1.6
		C155.5,36.1,155,35.3,153.9,35.3 M156,37c0,1.1-0.7,2.1-2.1,2.1c-1.4,0-2.1-1-2.1-2.1c0-1.2,0.8-2.1,2.1-2.1
		C155.3,34.9,156,35.9,156,37"/>
</g>
<polygon class="st0" points="158.2,34.9 160.7,38 160.7,34.9 161.2,34.9 161.2,39 160.8,39 158.4,35.9 158.4,39 157.9,39 
	157.9,34.9 "/>
<g>
	<defs>
		<rect id="SVGID_11_" x="28.3" y="11.8" width="138.7" height="45.4"/>
	</defs>
	<clipPath id="SVGID_12_">
		<use xlink:href="#SVGID_11_"  style="overflow:visible;"/>
	</clipPath>
	<path class="st6" d="M75.3,42.8c-0.3-0.2-0.6-0.3-1-0.3c-0.3,0-0.6,0.1-0.6,0.3c0,0.3,0.3,0.3,0.7,0.4c0.8,0.1,1.6,0.4,1.6,1.3
		c0,0.9-0.9,1.3-1.8,1.3c-0.7,0-1.3-0.1-1.8-0.7l0.6-0.7c0.4,0.4,0.8,0.5,1.2,0.5c0.4,0,0.6-0.1,0.6-0.4c0-0.2-0.2-0.3-0.7-0.4
		c-0.9-0.1-1.7-0.3-1.7-1.3c0-0.9,0.8-1.2,1.7-1.2c0.6,0,1.1,0.1,1.5,0.5L75.3,42.8z"/>
	<path class="st6" d="M79.8,42.6c-0.7,0-1.1,0.5-1.1,1.1c0,0.7,0.5,1.1,1.1,1.1c0.7,0,1.1-0.5,1.1-1.1C80.9,43,80.5,42.6,79.8,42.6
		 M79.8,45.9c-1.3,0-2.3-0.8-2.3-2.1c0-1.3,0.9-2.1,2.3-2.1c1.3,0,2.3,0.8,2.3,2.1C82.1,45.1,81.2,45.9,79.8,45.9"/>
	<path class="st6" d="M87.6,45.2c-0.5,0.5-1,0.6-1.6,0.6c-1.6,0-2.2-1-2.2-2.1c0-1,0.7-2.2,2.2-2.2c0.6,0,1.1,0.2,1.6,0.6l-0.7,0.7
		c-0.3-0.3-0.6-0.4-0.9-0.4c-0.8,0-1.1,0.6-1.1,1.2c0,0.5,0.3,1.1,1.1,1.1c0.3,0,0.7-0.1,1-0.4L87.6,45.2z"/>
</g>
<rect x="89.5" y="41.7" class="st0" width="1.1" height="4.1"/>
<g>
	<defs>
		<rect id="SVGID_13_" x="28.3" y="11.8" width="138.7" height="45.4"/>
	</defs>
	<clipPath id="SVGID_14_">
		<use xlink:href="#SVGID_13_"  style="overflow:visible;"/>
	</clipPath>
	<path class="st7" d="M94.6,42.6c-0.7,0-1.1,0.5-1.1,1.1c0,0.7,0.5,1.1,1.1,1.1c0.7,0,1.1-0.5,1.1-1.1C95.7,43,95.3,42.6,94.6,42.6
		 M94.6,45.9c-1.3,0-2.3-0.8-2.3-2.1c0-1.3,0.9-2.1,2.3-2.1c1.3,0,2.3,0.8,2.3,2.1C96.9,45.1,96,45.9,94.6,45.9"/>
</g>
<rect x="99.1" y="43.4" class="st0" width="2.3" height="0.9"/>
<path class="st0" d="M106.3,40.4h-1.1l-0.4,0.9v0h0.9L106.3,40.4L106.3,40.4z M106.9,45.8h-3.2v-4.1h3.2v1h-2v0.6h1.9v0.9h-1.9v0.6
	h2.1V45.8z"/>
<polygon class="st0" points="112.5,43.3 111.4,44.6 111.2,44.6 110.2,43.3 110.2,45.8 109.1,45.8 109.1,41.7 110.3,41.7 111.3,43.1 
	112.4,41.7 113.6,41.7 113.6,45.8 112.5,45.8 "/>
<g>
	<defs>
		<rect id="SVGID_15_" x="28.3" y="11.8" width="138.7" height="45.4"/>
	</defs>
	<clipPath id="SVGID_16_">
		<use xlink:href="#SVGID_15_"  style="overflow:visible;"/>
	</clipPath>
	<path class="st8" d="M117.7,42.6c-0.7,0-1.1,0.5-1.1,1.1c0,0.7,0.5,1.1,1.1,1.1c0.7,0,1.1-0.5,1.1-1.1
		C118.8,43,118.4,42.6,117.7,42.6 M117.7,45.9c-1.3,0-2.3-0.8-2.3-2.1c0-1.3,0.9-2.1,2.3-2.1c1.3,0,2.3,0.8,2.3,2.1
		C120,45.1,119.1,45.9,117.7,45.9"/>
</g>
<polygon class="st0" points="122.7,42.6 121.5,42.6 121.5,41.7 125,41.7 125,42.6 123.8,42.6 123.8,45.8 122.7,45.8 "/>
<rect x="126.9" y="41.7" class="st0" width="1.1" height="4.1"/>
<g>
	<defs>
		<rect id="SVGID_17_" x="28.3" y="11.8" width="138.7" height="45.4"/>
	</defs>
	<clipPath id="SVGID_18_">
		<use xlink:href="#SVGID_17_"  style="overflow:visible;"/>
	</clipPath>
	<path class="st9" d="M132.4,42.6c-0.7,0-1.1,0.5-1.1,1.1c0,0.7,0.5,1.1,1.1,1.1c0.7,0,1.1-0.5,1.1-1.1
		C133.5,43,133,42.6,132.4,42.6 M132.4,45.9c-1.3,0-2.3-0.8-2.3-2.1c0-1.3,0.9-2.1,2.3-2.1c1.3,0,2.3,0.8,2.3,2.1
		C134.6,45.1,133.7,45.9,132.4,45.9"/>
	<path class="st9" d="M139.1,43.9c0-0.5,0-0.7,0-0.8v-1.4h1.2v4.1h-1l-1.7-2.2l0,0.9v1.3h-1.2v-4.1h1L139.1,43.9z"/>
	<path class="st9" d="M145.2,43.9c0-0.5,0-0.7,0-0.8v-1.4h1.2v4.1h-1l-1.7-2.2l0,0.9v1.3h-1.2v-4.1h1L145.2,43.9z"/>
</g>
<polygon class="st0" points="151.9,45.8 148.7,45.8 148.7,41.7 151.8,41.7 151.8,42.7 149.8,42.7 149.8,43.2 151.7,43.2 151.7,44.2 
	149.8,44.2 149.8,44.8 151.9,44.8 "/>
<polygon class="st0" points="155.3,41.7 155.3,44.8 157.2,44.8 157.2,45.8 154.1,45.8 154.1,41.7 "/>
<polygon class="st0" points="160.1,41.7 160.1,44.8 162.1,44.8 162.1,45.8 159,45.8 159,41.7 "/>
<polygon class="st0" points="163.7,41.7 163.7,45.8 167,45.8 167,44.8 164.9,44.8 164.9,44.2 166.8,44.2 166.8,43.2 164.9,43.2 
	164.9,42.7 166.9,42.7 166.9,41.7 "/>
<g>
	<defs>
		<rect id="SVGID_19_" x="28.3" y="11.8" width="138.7" height="45.4"/>
	</defs>
	<clipPath id="SVGID_20_">
		<use xlink:href="#SVGID_19_"  style="overflow:visible;"/>
	</clipPath>
	<path class="st10" d="M56.8,26l-4.3,8.6c-1.1,2.2-3.9,3.2-6.2,2.3l-8.6-3.3c-2.3-0.9-2.3-2.4,0-3.3l16.9-6.6
		C56.9,22.8,57.9,23.8,56.8,26 M49.3,45.1L49.3,45.1c-0.4,2.5-2.6,3.7-4.9,2.7l-4.2-1.7c-2.3-0.9-2.2-2.2,0.2-2.8l5.4-1.4
		C48.1,41.2,49.7,42.7,49.3,45.1 M34.3,39.2l-0.5-1.8c-0.7-2.3,0.7-3.5,3-2.6l8.6,3.3c2.3,0.9,2.2,2.1-0.2,2.8l-5.4,1.4
		C37.4,42.9,34.9,41.5,34.3,39.2 M54.1,16.6l-11.4-3.9c-1.1,0.4-2.1,0.9-3.1,1.5l14.2,4.8c2.3,0.8,2.4,2.2,0.1,3.1L37,28.8
		c-2.3,0.9-4.7-0.3-5.3-2.7l-0.7-2.7c-1.7,3.2-2.6,6.8-2.6,10.7c0,0.7,0,1.3,0.1,1.9c1.4-0.9,2.8-0.3,3.4,1.7l0.5,1.8
		c0.5,1.8-0.3,3.6-1.8,4.4c0.9,1.9,2.1,3.7,3.5,5.3c0.9-2.1,3.3-3.1,5.5-2.2l4.2,1.7c2.3,0.9,2.2,2.3-0.1,3.2l-4.7,1.6
		c0.6,0.4,1.2,0.7,1.8,1l3.7-1.3c2.3-0.8,5,0.4,5.8,2.7l0.5,1.2c0.2,0,0.5,0,0.7,0c0.7,0,1.3,0,2-0.1l-0.5-1.3
		c-0.9-2.3,0.4-3.8,2.8-3.4l7.7,1.3c0.7-0.4,1.3-0.9,2-1.3l-9.8-1.7c-2.4-0.4-4.1-2.7-3.7-5.1l0-0.1c0.4-2.4,2.5-3.3,4.6-2.1
		l11.3,6.8c0.4-0.4,0.7-0.8,1.1-1.2l-11.4-6.8c-2.1-1.3-2-3.1,0.2-4.2l16.4-7.6c-0.1-0.5-0.2-1-0.3-1.5l-16.4,7.6
		c-2.2,1-3.2,0.1-2.1-2.1l4.3-8.6c1.1-2.2,4-3.6,6.4-3.1l6,1.2c-0.3-0.7-0.7-1.4-1.1-2.1l-3.9-0.8c-2.4-0.5-2.6-1.8-0.4-2.9l1-0.5
		c-0.6-0.6-1.3-1.2-2-1.8l0,0c-2.2,1.1-4.3,0-4.8-2.4L60.8,13c-1.1-0.5-2.3-0.9-3.5-1.2l0.3,1.9C58,16.1,56.4,17.4,54.1,16.6"/>
</g>
</svg>
