<?xml version="1.0" encoding="utf-8"?>
<!-- Generator: Adobe Illustrator 16.0.0, SVG Export Plug-In . SVG Version: 6.00 Build 0)  -->
<!DOCTYPE svg PUBLIC "-//W3C//DTD SVG 1.1//EN" "http://www.w3.org/Graphics/SVG/1.1/DTD/svg11.dtd">
<svg version="1.1" id="Layer_1" xmlns="http://www.w3.org/2000/svg" xmlns:xlink="http://www.w3.org/1999/xlink" x="0px" y="0px"
	 width="491.834px" height="265.537px" viewBox="0 0 491.834 265.537" enable-background="new 0 0 491.834 265.537"
	 xml:space="preserve">
<metadata><?xpacket begin="﻿" id="W5M0MpCehiHzreSzNTczkc9d"?>
<x:xmpmeta xmlns:x="adobe:ns:meta/" x:xmptk="Adobe XMP Core 5.3-c011 66.145661, 2012/02/06-14:56:27        ">
   <rdf:RDF xmlns:rdf="http://www.w3.org/1999/02/22-rdf-syntax-ns#">
      <rdf:Description rdf:about=""
            xmlns:ExtensisFontSense="http://www.extensis.com/meta/FontSense/">
         <ExtensisFontSense:slug>
            <rdf:Bag>
               <rdf:li rdf:parseType="Resource">
                  <ExtensisFontSense:Family>Nexa Light</ExtensisFontSense:Family>
                  <ExtensisFontSense:Version>1.000</ExtensisFontSense:Version>
                  <ExtensisFontSense:OutlineFileSize>0</ExtensisFontSense:OutlineFileSize>
                  <ExtensisFontSense:KerningChecksum>0</ExtensisFontSense:KerningChecksum>
                  <ExtensisFontSense:Foundry>--</ExtensisFontSense:Foundry>
                  <ExtensisFontSense:FontKind>OpenType - PS</ExtensisFontSense:FontKind>
                  <ExtensisFontSense:Checksum>3404997549</ExtensisFontSense:Checksum>
                  <ExtensisFontSense:PostScriptName>Nexa-Light</ExtensisFontSense:PostScriptName>
                  <ExtensisFontSense:FontSense_1.2_Checksum>3404997549</ExtensisFontSense:FontSense_1.2_Checksum>
               </rdf:li>
            </rdf:Bag>
         </ExtensisFontSense:slug>
      </rdf:Description>
      <rdf:Description rdf:about=""
            xmlns:dc="http://purl.org/dc/elements/1.1/">
         <dc:format>image/svg+xml</dc:format>
      </rdf:Description>
      <rdf:Description rdf:about=""
            xmlns:xmp="http://ns.adobe.com/xap/1.0/"
            xmlns:xmpGImg="http://ns.adobe.com/xap/1.0/g/img/">
         <xmp:CreatorTool>Adobe Illustrator CS6 (Macintosh)</xmp:CreatorTool>
         <xmp:CreateDate>2016-11-10T17:15:53-05:00</xmp:CreateDate>
         <xmp:MetadataDate>2016-11-10T17:15:53-05:00</xmp:MetadataDate>
         <xmp:ModifyDate>2016-11-10T17:15:53-05:00</xmp:ModifyDate>
         <xmp:Thumbnails>
            <rdf:Alt>
               <rdf:li rdf:parseType="Resource">
                  <xmpGImg:width>256</xmpGImg:width>
                  <xmpGImg:height>140</xmpGImg:height>
                  <xmpGImg:format>JPEG</xmpGImg:format>
                  <xmpGImg:image>/9j/4AAQSkZJRgABAgEASABIAAD/7QAsUGhvdG9zaG9wIDMuMAA4QklNA+0AAAAAABAASAAAAAEA&#xA;AQBIAAAAAQAB/+4ADkFkb2JlAGTAAAAAAf/bAIQABgQEBAUEBgUFBgkGBQYJCwgGBggLDAoKCwoK&#xA;DBAMDAwMDAwQDA4PEA8ODBMTFBQTExwbGxscHx8fHx8fHx8fHwEHBwcNDA0YEBAYGhURFRofHx8f&#xA;Hx8fHx8fHx8fHx8fHx8fHx8fHx8fHx8fHx8fHx8fHx8fHx8fHx8fHx8fHx8f/8AAEQgAjAEAAwER&#xA;AAIRAQMRAf/EAaIAAAAHAQEBAQEAAAAAAAAAAAQFAwIGAQAHCAkKCwEAAgIDAQEBAQEAAAAAAAAA&#xA;AQACAwQFBgcICQoLEAACAQMDAgQCBgcDBAIGAnMBAgMRBAAFIRIxQVEGE2EicYEUMpGhBxWxQiPB&#xA;UtHhMxZi8CRygvElQzRTkqKyY3PCNUQnk6OzNhdUZHTD0uIIJoMJChgZhJRFRqS0VtNVKBry4/PE&#xA;1OT0ZXWFlaW1xdXl9WZ2hpamtsbW5vY3R1dnd4eXp7fH1+f3OEhYaHiImKi4yNjo+Ck5SVlpeYmZ&#xA;qbnJ2en5KjpKWmp6ipqqusra6voRAAICAQIDBQUEBQYECAMDbQEAAhEDBCESMUEFURNhIgZxgZEy&#xA;obHwFMHR4SNCFVJicvEzJDRDghaSUyWiY7LCB3PSNeJEgxdUkwgJChgZJjZFGidkdFU38qOzwygp&#xA;0+PzhJSktMTU5PRldYWVpbXF1eX1RlZmdoaWprbG1ub2R1dnd4eXp7fH1+f3OEhYaHiImKi4yNjo&#xA;+DlJWWl5iZmpucnZ6fkqOkpaanqKmqq6ytrq+v/aAAwDAQACEQMRAD8A9U4q7FXYq7FXYq7FXYq7&#xA;FXYq7FXYq7FXYq7FXYq7FXYq7FXYq7FXYq7FXYq7FXYq7FXYq7FXYq7FXYq7FXYq7FXYq7FXYq7F&#xA;XYq7FXYq7FXYq7FXYq7FXYq7FXYq7FXYq7FXYq7FXYq7FXYq7FXYq7FXYq7FXYq7FXYq7FXYq7FX&#xA;Yq7FXYq7FXYq7FXYq7FXYq7FXYq7FXYq7FXYq7FXYq7FXYq7FXYq7FXYq7FXYq7FXYq7FXYq7FXY&#xA;q7FXYq7FXYq7FXYq7FXYq7FXYq7FXYq7FXYq7FXYq7FXYq7FXYq7FXYq7FXYq7FXYq7FXYq7FXYq&#xA;7FXYq7FXYq7FXYq7FXYq7FXYq7FXYq7FXYq7FXYq7FXYq7FXYq7FXYq7FXYq7FXYq7FXYq7FXYq7&#xA;FXYq7FXYq7FXYq7FXYq7FXYq7FXYq7FXYq7FXYq7FXYq7FXYq7FXYq7FXYq7FXYq7FXYq7FXYq7F&#xA;XYq7FXYq7FXYq7FXYq7FXYq7FXYq7FXYq7FXYq7FXYq7FXYq7FXYq7FXYq7FXYq7FXYq7FXYq7FX&#xA;Yq7FXYq7FXYq7FXYq7FXYq7FXYq7FXYq7FXYq7FXYq7FXYq7FXYq7FXYq7FXYq7FXYq7FXYq7FXY&#xA;q7FXYq7FXYq7FXYq7FXYq7FXYq7FXYq7FXYq7FXYq7FXYq7FXYq7FXYq7FXYq7FXYq7FXYq7FXYq&#xA;7FXYq7FXYq7FXYq7FXYq7FXYq7FXYq7FXYq7FXYq7FXYq7FXYq7FXYq7FXYq7FXYq7FXYq7FXYq7&#xA;FXYq7FXYq7FXYq7FXYq7FXYq7FXYq7FXYq7FXYq7FXYq7FXYq7FXYq7FXYq7FXYq7FXYq7FXYq7F&#xA;XYq7FXYq7FXYq7FXYq7FXYq7FXYq7FXYq7FXYq7FXYq7FXYq7FXYq7FXYq7FXYq7FXYq7FXYq7FX&#xA;Yq7FXYq7FXYq7FXYq7FXYq7FXYq7FXYq7FXYq7FXYq7FXYq7FXYq7FXYq7FXYq7FXYq7FXYq7FXY&#xA;q7FXYq7FXYq7FXYq7FXYq7FXYq7FXYq7FXYq7FXYq7FXYq7FXYq7FXYq7FXYq7FXYq7FXYq7FXYq&#xA;7FXYq7FXYq7FXYq7FXYq7FXYq7FXYq7FXYq7FXYq7FXYq7FXYq7FXYq7FXYq7FXYq7FXYq7FXYq7&#xA;FXYq7FXYq7FXYq7FXYq7FXYq7FXYq7FXYq7FXYq7FXYq7FXYq7FXYq7FXYq7FXYq7FXYq7FXYq7F&#xA;XYq7FXYq7FXYq7FXYq7FXYq7FXYq7FXYq7FXYq7FXYq7FXYq7FXYq7FXYq7FXYq7FXYq7FXYq7FX&#xA;Yq7FXYq7FXYq7FXYq7FXYq7FXYq7FXYq7FXYq7FXYq7FXYq7FXYq7FXYq7FXYq7FXYq7FXYq7FXY&#xA;q7FXYq7FXYq7FXYq7FXYq7FXYq7FXYq7FXYq7FXYq7FXYq7FXYq7FX//2Q==</xmpGImg:image>
               </rdf:li>
            </rdf:Alt>
         </xmp:Thumbnails>
      </rdf:Description>
      <rdf:Description rdf:about=""
            xmlns:xmpTPg="http://ns.adobe.com/xap/1.0/t/pg/"
            xmlns:stDim="http://ns.adobe.com/xap/1.0/sType/Dimensions#"
            xmlns:xmpG="http://ns.adobe.com/xap/1.0/g/">
         <xmpTPg:MaxPageSize rdf:parseType="Resource">
            <stDim:w>491.833984</stDim:w>
            <stDim:h>265.537109</stDim:h>
            <stDim:unit>Pixels</stDim:unit>
         </xmpTPg:MaxPageSize>
         <xmpTPg:NPages>1</xmpTPg:NPages>
         <xmpTPg:HasVisibleTransparency>False</xmpTPg:HasVisibleTransparency>
         <xmpTPg:HasVisibleOverprint>False</xmpTPg:HasVisibleOverprint>
         <xmpTPg:SwatchGroups>
            <rdf:Seq>
               <rdf:li rdf:parseType="Resource">
                  <xmpG:groupName>Default Swatch Group</xmpG:groupName>
                  <xmpG:groupType>0</xmpG:groupType>
               </rdf:li>
            </rdf:Seq>
         </xmpTPg:SwatchGroups>
      </rdf:Description>
      <rdf:Description rdf:about=""
            xmlns:xmpMM="http://ns.adobe.com/xap/1.0/mm/"
            xmlns:stEvt="http://ns.adobe.com/xap/1.0/sType/ResourceEvent#">
         <xmpMM:DerivedFrom rdf:parseType="Resource"/>
         <xmpMM:DocumentID>xmp.did:F77F117407206811822AE002C3B2ECD6</xmpMM:DocumentID>
         <xmpMM:InstanceID>xmp.iid:F77F117407206811822AE002C3B2ECD6</xmpMM:InstanceID>
         <xmpMM:OriginalDocumentID>xmp.did:F77F117407206811822AE002C3B2ECD6</xmpMM:OriginalDocumentID>
         <xmpMM:History>
            <rdf:Seq>
               <rdf:li rdf:parseType="Resource">
                  <stEvt:action>saved</stEvt:action>
                  <stEvt:instanceID>xmp.iid:F77F117407206811822AE002C3B2ECD6</stEvt:instanceID>
                  <stEvt:when>2016-11-10T17:15:53-05:00</stEvt:when>
                  <stEvt:softwareAgent>Adobe Illustrator CS6 (Macintosh)</stEvt:softwareAgent>
                  <stEvt:changed>/</stEvt:changed>
               </rdf:li>
            </rdf:Seq>
         </xmpMM:History>
      </rdf:Description>
   </rdf:RDF>
</x:xmpmeta>
                                                                                                    
                                                                                                    
                                                                                                    
                                                                                                    
                                                                                                    
                                                                                                    
                                                                                                    
                                                                                                    
                                                                                                    
                                                                                                    
                                                                                                    
                                                                                                    
                                                                                                    
                                                                                                    
                                                                                                    
                                                                                                    
                                                                                                    
                                                                                                    
                                                                                                    
                                                                                                    
                           
<?xpacket end="w"?>
	</metadata>
<g>
	<path fill="#FFFFFF" d="M5.286,44.324V1.626h9.353v42.697H5.286z"/>
	<path fill="#FFFFFF" d="M56.32,29.481l-0.61-13.419V1.83h9.556v42.697h-8.133L35.784,17.079l0.407,14.029v13.216h-9.556V1.626
		h8.133L56.32,29.481z"/>
	<path fill="#FFFFFF" d="M102.271,11.996c-2.44-2.44-6.506-3.66-9.963-3.66c-4.27,0-7.523,1.83-7.523,4.677
		c0,3.863,3.66,4.676,9.149,5.083c8.336,0.813,16.469,3.863,16.469,13.826c0,9.556-8.743,13.623-17.893,13.623
		c-7.319,0-15.045-2.847-18.706-8.743l5.693-5.896c3.253,4.27,8.743,6.1,13.012,6.1c5.083,0,8.54-2.033,8.54-5.083
		c0-3.66-2.846-5.287-8.54-5.693c-8.946-0.813-17.079-3.05-16.875-13.216C75.635,4.473,83.768,0,92.511,0
		c6.506,0,11.589,1.423,15.859,6.506L102.271,11.996z"/>
	<path fill="#FFFFFF" d="M128.702,10.166h-13.013v-8.54c12.403,0,22.975,0,35.378,0v8.54h-13.013v34.158h-9.353V10.166z"/>
	<path fill="#FFFFFF" d="M159.2,44.324V1.626h9.353v42.697H159.2z"/>
	<path fill="#FFFFFF" d="M189.902,10.166h-13.013v-8.54c12.402,0,22.975,0,35.378,0v8.54h-13.013v34.158h-9.353V10.166z"/>
	<path fill="#FFFFFF" d="M258.624,1.83v23.788c0,12.606-7.116,19.519-18.299,19.722c-11.183,0.407-20.535-6.1-20.535-19.722V1.83
		h9.353v23.788c0,7.523,4.27,11.589,11.183,11.183c6.506-0.406,8.743-4.879,8.743-11.183V1.83H258.624z"/>
	<path fill="#FFFFFF" d="M279.16,10.166h-13.013v-8.54c12.403,0,22.975,0,35.378,0v8.54h-13.013v34.158h-9.353V10.166z"/>
</g>
<g>
	<path fill="#FFFFFF" d="M22.772,62.623c14.639,0,21.146,9.962,21.146,21.145s-6.303,21.552-21.146,21.552
		c-5.287,0-12.199,0-17.486,0V62.623H22.772z M14.639,96.577h8.133c9.353,0,11.792-6.913,11.792-13.012s-2.847-12.403-11.792-12.403
		h-8.133V96.577z"/>
	<path fill="#FFFFFF" d="M54.083,62.623h8.946l-5.083,14.842h-6.913L54.083,62.623z"/>
	<path fill="#FFFFFF" d="M103.693,105.32H71.162c0-14.232,0-28.465,0-42.697h31.718v8.743H80.515v8.133h20.942v8.336H80.718v8.54
		h23.179L103.693,105.32L103.693,105.32z M97.391,49.61H87.225l-4.473,8.54v0.406h7.726l7.116-8.539V49.61H97.391z"/>
	<path fill="#FFFFFF" d="M131.142,62.623c14.639,0,21.145,9.962,21.145,20.942c0,11.183-6.303,21.552-21.145,21.552
		c-5.287,0-12.199,0-17.486,0V62.419L131.142,62.623L131.142,62.623z M123.009,96.577h8.133c9.353,0,11.792-6.913,11.792-13.012
		s-2.847-12.403-11.792-12.403h-8.133V96.577z"/>
	<path fill="#FFFFFF" d="M200.271,62.826v23.789c0,12.606-7.116,19.519-18.299,19.722c-11.183,0.406-20.536-6.1-20.536-19.722
		V62.826h9.353v23.789c0,7.523,4.27,11.589,11.183,11.183c6.506-0.407,8.743-4.88,8.743-11.183V62.826H200.271z"/>
	<path fill="#FFFFFF" d="M248.255,100.237c-4.473,4.27-9.963,6.303-16.469,6.303c-16.266,0-22.772-10.573-22.772-22.162
		c0-10.979,7.116-22.568,22.772-22.568c5.896,0,11.183,2.236,15.656,6.506l-5.896,5.896c-2.643-2.439-6.303-3.456-9.759-3.456
		c-9.759,0-13.419,7.522-13.419,13.622s3.456,13.216,13.419,13.216c3.457,0,7.93-1.423,10.573-4.066L248.255,100.237z"/>
	<path fill="#FFFFFF" d="M286.479,98h-21.958l-3.05,7.32h-10.166l19.112-42.697h10.37l19.112,42.697h-10.369L286.479,98z
		 M275.703,72.382l-7.32,17.282h14.639L275.703,72.382z"/>
	<path fill="#FFFFFF" d="M312.301,71.162h-13.013v-8.539c12.402,0,22.975,0,35.378,0v8.539h-13.013v34.158h-9.353V71.162z"/>
	<path fill="#FFFFFF" d="M343.002,105.32V62.623h9.353v42.697H343.002z"/>
	<path fill="#FFFFFF" d="M384.887,106.337c-13.623,0-22.975-8.54-22.975-22.365c0-13.826,9.353-22.365,22.975-22.365
		c13.623,0,22.975,8.539,22.975,22.365C407.861,97.797,398.51,106.337,384.887,106.337z M384.887,70.146
		c-8.133,0-13.623,6.1-13.623,13.826c0,7.929,5.692,13.826,13.623,13.826c8.336,0,13.623-5.896,13.623-13.826
		C398.51,76.245,393.223,70.146,384.887,70.146z"/>
	<path fill="#FFFFFF" d="M447.104,90.478l-0.611-13.419V62.826h9.557v42.697h-8.133l-21.145-27.245l0.406,14.029v13.216h-9.557
		V62.826h8.133L447.104,90.478z"/>
</g>
<path fill="#FFFFFF" d="M30.498,133.988c-2.44-2.439-6.506-3.66-9.963-3.66c-4.27,0-7.523,1.83-7.523,4.676
	c0,3.863,3.66,4.677,9.15,5.083c8.336,0.813,16.469,3.863,16.469,13.826c0,9.556-8.743,13.622-17.892,13.622
	c-7.32,0-15.046-2.846-18.706-8.743l5.693-5.896c3.253,4.27,8.743,6.1,13.013,6.1c5.083,0,8.54-2.033,8.54-5.083
	c0-3.66-2.847-5.287-8.54-5.693c-8.946-0.813-17.079-3.05-16.876-13.216c0-8.539,8.133-13.012,16.876-13.012
	c6.506,0,11.589,1.423,15.859,6.506L30.498,133.988z"/>
<g>
	<path fill="#FFFFFF" d="M68.112,122.603c-13.623,0-22.975,8.54-22.975,22.365s9.353,22.365,22.975,22.365
		s22.976-8.336,22.976-22.365C91.088,131.142,81.735,122.603,68.112,122.603z M68.112,158.793c-7.929,0-13.623-5.896-13.623-13.826
		c0-7.726,5.49-13.826,13.623-13.826c8.336,0,13.826,6.1,13.623,13.826C81.735,152.897,76.449,158.793,68.112,158.793z"/>
</g>
<path fill="#FFFFFF" d="M137.445,161.233c-4.473,4.27-9.963,6.303-16.469,6.303c-16.266,0-22.772-10.573-22.772-22.162
	c0-10.979,7.116-22.569,22.772-22.569c5.896,0,11.183,2.237,15.655,6.506l-5.896,5.896c-2.643-2.44-6.303-3.457-9.759-3.457
	c-9.76,0-13.419,7.523-13.419,13.623c0,6.303,3.457,13.216,13.419,13.216c3.456,0,7.929-1.423,10.572-4.066L137.445,161.233z"/>
<rect x="145.375" y="123.619" fill="#FFFFFF" width="9.353" height="42.697"/>
<g>
	<path fill="#FFFFFF" d="M187.258,122.603c-13.622,0-22.975,8.54-22.975,22.365s9.353,22.365,22.975,22.365
		s23.179-8.336,22.976-22.365C210.234,131.142,200.881,122.603,187.258,122.603z M187.258,158.793
		c-7.929,0-13.622-5.896-13.622-13.826c0-7.726,5.489-13.826,13.622-13.826c8.336,0,13.826,6.1,13.623,13.826
		C200.881,152.897,195.595,158.793,187.258,158.793z"/>
</g>
<g>
	<path fill="#FFFFFF" d="M37.817,227.312H5.286c0-14.232,0-28.465,0-42.697h31.718v8.743H14.639v8.133h20.942v8.336H14.639v8.539
		h23.178V227.312z"/>
	<path fill="#FFFFFF" d="M84.785,197.628L71.569,214.3h-1.626l-12.809-16.672v29.888h-9.556v-42.697c3.66,0,7.319,0,10.979,0
		l12.403,16.47l12.402-16.47h10.776v42.697h-9.556L84.785,197.628L84.785,197.628z"/>
	<path fill="#FFFFFF" d="M126.872,228.329c-13.623,0-22.975-8.539-22.975-22.365c0-13.825,9.353-22.365,22.975-22.365
		s22.976,8.54,22.976,22.365C149.848,219.79,140.495,228.329,126.872,228.329z M126.872,192.139c-8.133,0-13.623,6.1-13.623,13.825
		c0,7.93,5.693,13.826,13.623,13.826c8.336,0,13.623-5.896,13.623-13.826C140.495,198.238,135.005,192.139,126.872,192.139z"/>
	<path fill="#FFFFFF" d="M167.74,193.155h-13.013v-8.54c12.403,0,22.976,0,35.378,0v8.54h-13.013v34.157h-9.353V193.155z"/>
	<path fill="#FFFFFF" d="M198.441,227.312v-42.697h9.353v42.697H198.441z"/>
	<path fill="#FFFFFF" d="M240.325,228.329c-13.623,0-22.975-8.539-22.975-22.365c0-13.825,9.353-22.365,22.975-22.365
		s22.975,8.54,22.975,22.365C263.3,219.79,253.948,228.329,240.325,228.329z M240.325,192.139c-8.133,0-13.623,6.1-13.623,13.825
		c0,7.93,5.693,13.826,13.623,13.826c8.336,0,13.623-5.896,13.623-13.826C254.151,198.238,248.662,192.139,240.325,192.139z"/>
	<path fill="#FFFFFF" d="M302.542,212.471l-0.61-13.42v-14.232h9.557v42.697h-8.133l-21.146-27.244l0.406,14.028v13.216h-9.556
		v-42.697h8.133L302.542,212.471z"/>
	<path fill="#FFFFFF" d="M355.811,227.312H323.28c0-14.232,0-28.465,0-42.697h31.719v8.743h-22.365v8.133h20.941v8.336h-20.941
		v8.539h23.178V227.312z"/>
	<path fill="#FFFFFF" d="M375.127,184.615v33.955h21.349v8.742h-30.906v-42.697H375.127z"/>
	<path fill="#FFFFFF" d="M414.164,184.615v33.955h21.35v8.742h-30.904v-42.697H414.164z"/>
	<path fill="#FFFFFF" d="M476.178,227.312h-32.531c0-14.232,0-28.465,0-42.697h31.719v8.743h-22.367v8.133h20.943v8.336h-20.943
		v8.539h23.18V227.312z"/>
</g>
<rect y="260.251" fill="#FFFFFF" width="491.834" height="5.286"/>
</svg>
