<?xml version="1.0" encoding="utf-8"?>
<!-- Generator: Adobe Illustrator 19.2.1, SVG Export Plug-In . SVG Version: 6.00 Build 0)  -->
<!DOCTYPE svg PUBLIC "-//W3C//DTD SVG 1.1//EN" "http://www.w3.org/Graphics/SVG/1.1/DTD/svg11.dtd">
<svg version="1.1" id="Layer_1" xmlns="http://www.w3.org/2000/svg" xmlns:xlink="http://www.w3.org/1999/xlink" x="0px" y="0px"
	 viewBox="0 0 339.5 295.1" style="enable-background:new 0 0 339.5 295.1;" xml:space="preserve">
<metadata><?xpacket begin="﻿" id="W5M0MpCehiHzreSzNTczkc9d"?>
<x:xmpmeta xmlns:x="adobe:ns:meta/" x:xmptk="Adobe XMP Core 5.6-c111 79.158366, 2015/09/25-01:12:00        ">
   <rdf:RDF xmlns:rdf="http://www.w3.org/1999/02/22-rdf-syntax-ns#">
      <rdf:Description rdf:about=""
            xmlns:ExtensisFontSense="http://www.extensis.com/meta/FontSense/">
         <ExtensisFontSense:slug>
            <rdf:Bag>
               <rdf:li>
                  <rdf:Description>
                     <ExtensisFontSense:Family>Nexa Light</ExtensisFontSense:Family>
                     <ExtensisFontSense:Version>1.000</ExtensisFontSense:Version>
                     <ExtensisFontSense:OutlineFileSize>0</ExtensisFontSense:OutlineFileSize>
                     <ExtensisFontSense:KerningChecksum>0</ExtensisFontSense:KerningChecksum>
                     <ExtensisFontSense:Foundry>--</ExtensisFontSense:Foundry>
                     <ExtensisFontSense:FontKind>OpenType - PS</ExtensisFontSense:FontKind>
                     <ExtensisFontSense:Checksum>3404997549</ExtensisFontSense:Checksum>
                     <ExtensisFontSense:PostScriptName>Nexa-Light</ExtensisFontSense:PostScriptName>
                     <ExtensisFontSense:FontSense_1.2_Checksum>3404997549</ExtensisFontSense:FontSense_1.2_Checksum>
                  </rdf:Description>
               </rdf:li>
            </rdf:Bag>
         </ExtensisFontSense:slug>
      </rdf:Description>
   </rdf:RDF>
</x:xmpmeta>
                                                                                                    
                                                                                                    
                                                                                                    
                                                                                                    
                                                                                                    
                                                                                                    
                                                                                                    
                                                                                                    
                                                                                                    
                                                                                                    
                                                                                                    
                                                                                                    
                                                                                                    
                                                                                                    
                                                                                                    
                                                                                                    
                                                                                                    
                                                                                                    
                                                                                                    
                                                                                                    
                           
<?xpacket end="w"?></metadata>
<style type="text/css">
	.st0{fill:#FFFFFF;}
	.st1{font-family:'Nexa-Light';}
	.st2{font-size:11.5336px;}
</style>
<g>
	<path class="st0" d="M31.2,213.7c-0.8,0.8-1.9,1.2-2.9,1.2c-2.7,0-4.1-1.9-4.2-4.1c0-2.2,1.4-4.2,4.2-4.2c1.1,0,2.1,0.4,2.9,1.2
		l-0.4,0.4c-0.7-0.7-1.6-1-2.5-1c-2.4,0-3.6,1.7-3.6,3.6c0,1.9,1.2,3.5,3.6,3.5c0.9,0,1.8-0.3,2.5-1L31.2,213.7z"/>
	<path class="st0" d="M39.4,206.8v5c0,4.2-6.2,4.2-6.2,0v-5h0.6v5c0,3.5,5,3.5,5,0v-5H39.4z"/>
	<path class="st0" d="M42.7,206.8v7.5h4.5v0.6h-5.2v-8.1H42.7z"/>
	<path class="st0" d="M49.8,207.3h-2.9v-0.6h6.5v0.6h-2.9v7.5h-0.6V207.3z"/>
	<path class="st0" d="M55.1,214.8v-8.1h0.6v8.1H55.1z"/>
	<path class="st0" d="M65,206.8l-3.3,8.1H61l-3.3-8.1h0.7l3,7.4l3-7.4H65z"/>
	<path class="st0" d="M72.8,214.8l-0.9-2h-4.8l-0.9,2h-0.7l3.6-8.1h0.7l3.6,8.1H72.8z M71.7,212.3l-2.2-4.9l-2.2,4.9H71.7z"/>
	<path class="st0" d="M76.5,207.3h-2.9v-0.6H80v0.6h-2.9v7.5h-0.6V207.3z"/>
	<path class="st0" d="M81.8,214.8v-8.1h0.6v8.1H81.8z"/>
	<path class="st0" d="M85.4,206.8l5.4,6.7v-6.7h0.6v8.1h-0.2l-5.4-6.7v6.7h-0.6v-8.1H85.4z"/>
	<path class="st0" d="M100.4,208.3c-0.7-0.7-1.7-1-2.6-1c-2.4,0-3.6,1.7-3.6,3.6c0,1.9,1.2,3.5,3.6,3.5c0.9,0,1.8-0.3,2.5-0.9v-2.3
		h-2.8v-0.5h3.4v3c-0.8,0.8-1.8,1.3-3,1.3c-2.7,0-4.2-1.9-4.2-4.1c0-2.5,1.7-4.2,4.2-4.2c1.1,0,2.1,0.4,3,1.2L100.4,208.3z"/>
	<path class="st0" d="M108.2,207.3h-2.9v-0.6h6.5v0.6h-2.9v7.5h-0.6V207.3z"/>
	<path class="st0" d="M119.2,214.8v-3.7h-5.1v3.7h-0.6v-8.1h0.6v3.8h5.1v-3.8h0.6v8.1H119.2z"/>
	<path class="st0" d="M123.2,210.5h4.7v0.6h-4.7v3.2h5.1v0.6h-5.7v-8.1h5.6v0.6h-5V210.5z"/>
	<path class="st0" d="M139.9,214.8l-0.9-2h-4.8l-0.9,2h-0.7l3.6-8.1h0.7l3.6,8.1H139.9z M138.8,212.3l-2.2-4.9l-2.2,4.9H138.8z"/>
	<path class="st0" d="M147.4,208.3c-0.6-0.9-1.5-1.1-2.4-1.1c-0.9,0-2.4,0.3-2.4,1.6c0,1,1.1,1.3,2.5,1.5c1.6,0.3,3.2,0.6,3.2,2.3
		c0,1.8-1.8,2.3-3.2,2.3c-1.3,0-2.7-0.5-3.3-1.8l0.6-0.3c0.5,1,1.8,1.5,2.8,1.5s2.6-0.3,2.6-1.7c0-1.2-1.3-1.5-2.7-1.7
		c-1.5-0.3-3-0.6-3-2.1c0-1.7,1.7-2.2,3.1-2.2c1.2,0,2.2,0.2,3,1.4L147.4,208.3z"/>
	<path class="st0" d="M155.4,208.3c-0.6-0.9-1.5-1.1-2.4-1.1c-0.9,0-2.4,0.3-2.4,1.6c0,1,1.1,1.3,2.5,1.5c1.6,0.3,3.2,0.6,3.2,2.3
		c0,1.8-1.8,2.3-3.2,2.3c-1.3,0-2.7-0.5-3.3-1.8l0.6-0.3c0.5,1,1.8,1.5,2.8,1.5s2.6-0.3,2.6-1.7c0-1.2-1.3-1.5-2.7-1.7
		c-1.5-0.3-3-0.6-3-2.1c0-1.7,1.7-2.2,3.1-2.2c1.2,0,2.2,0.2,3,1.4L155.4,208.3z"/>
	<path class="st0" d="M158.9,210.5h4.7v0.6h-4.7v3.2h5.1v0.6h-5.7v-8.1h5.6v0.6h-5V210.5z"/>
	<path class="st0" d="M168.2,207.3h-2.9v-0.6h6.5v0.6h-2.9v7.5h-0.6V207.3z"/>
	<path class="st0" d="M178.6,208.3c-0.6-0.9-1.5-1.1-2.4-1.1c-0.9,0-2.4,0.3-2.4,1.6c0,1,1.1,1.3,2.5,1.5c1.6,0.3,3.2,0.6,3.2,2.3
		c0,1.8-1.8,2.3-3.2,2.3c-1.3,0-2.7-0.5-3.3-1.8l0.6-0.3c0.5,1,1.8,1.5,2.8,1.5s2.6-0.3,2.6-1.7c0-1.2-1.3-1.5-2.7-1.7
		c-1.5-0.3-3-0.6-3-2.1c0-1.7,1.7-2.2,3.1-2.2c1.2,0,2.2,0.2,3,1.4L178.6,208.3z"/>
	<path class="st0" d="M192.5,210.8c0,2.1-1.4,4.2-4.1,4.2s-4.1-2.1-4.1-4.2c0-2.2,1.3-4.2,4.1-4.2
		C191.1,206.6,192.5,208.6,192.5,210.8z M185,210.8c0,1.8,1.2,3.6,3.5,3.6c2.3,0,3.5-1.8,3.5-3.6c0-1.9-1.2-3.6-3.5-3.6
		C186.1,207.2,184.9,208.9,185,210.8z"/>
	<path class="st0" d="M195.3,210.6h4.6v0.6h-4.6v3.7h-0.6v-8.1h5.4v0.6h-4.8V210.6z"/>
	<path class="st0" d="M210.6,208.3c-0.6-0.9-1.5-1.1-2.4-1.1c-0.9,0-2.4,0.3-2.4,1.6c0,1,1.1,1.3,2.5,1.5c1.6,0.3,3.2,0.6,3.2,2.3
		c0,1.8-1.8,2.3-3.2,2.3c-1.3,0-2.7-0.5-3.3-1.8l0.6-0.3c0.5,1,1.8,1.5,2.8,1.5s2.6-0.3,2.6-1.7c0-1.2-1.3-1.5-2.7-1.7
		c-1.5-0.3-3-0.6-3-2.1c0-1.7,1.7-2.2,3.1-2.2c1.2,0,2.2,0.2,3,1.4L210.6,208.3z"/>
	<path class="st0" d="M221.1,210.8c0,2.1-1.4,4.2-4.1,4.2s-4.1-2.1-4.1-4.2c0-2.2,1.3-4.2,4.1-4.2S221.1,208.6,221.1,210.8z
		 M213.6,210.8c0,1.8,1.2,3.6,3.5,3.6c2.3,0,3.5-1.8,3.5-3.6c0-1.9-1.2-3.6-3.5-3.6S213.5,208.9,213.6,210.8z"/>
	<path class="st0" d="M229.9,213.7c-0.8,0.8-1.9,1.2-2.9,1.2c-2.7,0-4.1-1.9-4.2-4.1c0-2.2,1.4-4.2,4.2-4.2c1.1,0,2.1,0.4,2.9,1.2
		l-0.4,0.4c-0.7-0.7-1.6-1-2.5-1c-2.4,0-3.6,1.7-3.6,3.6c0,1.9,1.2,3.5,3.6,3.5c0.9,0,1.8-0.3,2.5-1L229.9,213.7z"/>
	<path class="st0" d="M232,214.8v-8.1h0.6v8.1H232z"/>
	<path class="st0" d="M241.7,214.8l-0.9-2H236l-0.9,2h-0.7l3.6-8.1h0.7l3.6,8.1H241.7z M240.6,212.3l-2.2-4.9l-2.2,4.9H240.6z"/>
	<path class="st0" d="M244.9,206.8v7.5h4.5v0.6h-5.2v-8.1H244.9z"/>
</g>
<text transform="matrix(1 0 0 1 253.1289 214.8416)" class="st0 st1 st2"> </text>
<g>
	<path class="st0" d="M31.2,227.6c-0.8,0.8-1.9,1.2-2.9,1.2c-2.7,0-4.1-1.9-4.2-4.1c0-2.2,1.4-4.2,4.2-4.2c1.1,0,2.1,0.4,2.9,1.2
		l-0.4,0.4c-0.7-0.7-1.6-1-2.5-1c-2.4,0-3.6,1.7-3.6,3.6c0,1.9,1.2,3.5,3.6,3.5c0.9,0,1.8-0.3,2.5-1L31.2,227.6z"/>
	<path class="st0" d="M40.8,224.7c0,2.1-1.4,4.2-4.1,4.2c-2.7,0-4.1-2.1-4.1-4.2c0-2.2,1.3-4.2,4.1-4.2
		C39.4,220.5,40.8,222.5,40.8,224.7z M33.2,224.6c0,1.8,1.2,3.6,3.5,3.6c2.3,0,3.5-1.8,3.5-3.6c0-1.9-1.2-3.6-3.5-3.6
		C34.4,221.1,33.2,222.7,33.2,224.6z"/>
	<path class="st0" d="M43.2,220.6l5.4,6.7v-6.7h0.6v8.1H49l-5.4-6.7v6.7H43v-8.1H43.2z"/>
	<path class="st0" d="M52.3,220.6l5.4,6.7v-6.7h0.6v8.1h-0.2l-5.4-6.7v6.7H52v-8.1H52.3z"/>
	<path class="st0" d="M61.7,224.3h4.7v0.6h-4.7v3.2h5.1v0.6h-5.7v-8.1h5.6v0.6h-5V224.3z"/>
	<path class="st0" d="M75.5,227.6c-0.8,0.8-1.9,1.2-2.9,1.2c-2.7,0-4.1-1.9-4.2-4.1c0-2.2,1.4-4.2,4.2-4.2c1.1,0,2.1,0.4,2.9,1.2
		l-0.4,0.4c-0.7-0.7-1.6-1-2.5-1c-2.4,0-3.6,1.7-3.6,3.6c0,1.9,1.2,3.5,3.6,3.5c0.9,0,1.8-0.3,2.5-1L75.5,227.6z"/>
	<path class="st0" d="M79.5,221.2h-2.9v-0.6h6.5v0.6h-2.9v7.5h-0.6V221.2z"/>
	<path class="st0" d="M85.4,224.3h4.7v0.6h-4.7v3.2h5.1v0.6h-5.7v-8.1h5.6v0.6h-5V224.3z"/>
	<path class="st0" d="M99.6,224.6c0,2.1-1.3,4.1-4.1,4.1c-0.9,0-1.8,0-2.7,0v-8.1c0.9,0,1.8,0,2.7,0
		C98.2,220.6,99.5,222.6,99.6,224.6z M93.4,221.2v6.9h2.1c2.4,0,3.5-1.8,3.5-3.5c0-1.7-1.1-3.4-3.5-3.4H93.4z"/>
	<path class="st0" d="M102.1,220.6l5.4,6.7v-6.7h0.6v8.1h-0.2l-5.4-6.7v6.7h-0.6v-8.1H102.1z"/>
	<path class="st0" d="M111.5,224.3h4.7v0.6h-4.7v3.2h5.1v0.6h-5.7v-8.1h5.6v0.6h-5V224.3z"/>
	<path class="st0" d="M123.8,222.2c-0.6-0.9-1.5-1.1-2.4-1.1c-0.9,0-2.4,0.3-2.4,1.6c0,1,1.1,1.3,2.5,1.5c1.6,0.3,3.2,0.6,3.2,2.3
		c0,1.8-1.8,2.3-3.2,2.3c-1.3,0-2.7-0.5-3.3-1.8l0.6-0.3c0.5,1,1.8,1.5,2.8,1.5s2.6-0.3,2.6-1.7c0-1.2-1.3-1.5-2.7-1.7
		c-1.5-0.3-3-0.6-3-2.1c0-1.7,1.7-2.2,3.1-2.2c1.2,0,2.2,0.2,3,1.4L123.8,222.2z"/>
	<path class="st0" d="M131.8,222.2c-0.6-0.9-1.5-1.1-2.4-1.1c-0.9,0-2.4,0.3-2.4,1.6c0,1,1.1,1.3,2.5,1.5c1.6,0.3,3.2,0.6,3.2,2.3
		c0,1.8-1.8,2.3-3.2,2.3c-1.3,0-2.7-0.5-3.3-1.8l0.6-0.3c0.5,1,1.8,1.5,2.8,1.5s2.6-0.3,2.6-1.7c0-1.2-1.3-1.5-2.7-1.7
		c-1.5-0.3-3-0.6-3-2.1c0-1.7,1.7-2.2,3.1-2.2c1.2,0,2.2,0.2,3,1.4L131.8,222.2z"/>
	<path class="st0" d="M139.6,221.2h-2.9v-0.6h6.5v0.6h-2.9v7.5h-0.6V221.2z"/>
	<path class="st0" d="M150.7,228.7V225h-5.1v3.7h-0.6v-8.1h0.6v3.8h5.1v-3.8h0.6v8.1H150.7z"/>
	<path class="st0" d="M160.5,228.7h-0.8l-2.8-3.1h-2.2v3.1H154v-8.1c1.2,0,2.4,0,3.6,0c1.8,0,2.6,1.3,2.7,2.5c0,1.3-0.9,2.5-2.6,2.5
		L160.5,228.7z M154.7,225h2.9c1.4,0,2-0.8,2-1.9c0-0.9-0.6-1.9-2-1.9h-2.9V225z"/>
	<path class="st0" d="M170.2,224.7c0,2.1-1.4,4.2-4.1,4.2s-4.1-2.1-4.1-4.2c0-2.2,1.3-4.2,4.1-4.2
		C168.8,220.5,170.2,222.5,170.2,224.7z M162.6,224.6c0,1.8,1.2,3.6,3.5,3.6c2.3,0,3.5-1.8,3.5-3.6c0-1.9-1.2-3.6-3.5-3.6
		C163.8,221.1,162.6,222.7,162.6,224.6z"/>
	<path class="st0" d="M178.5,220.6v5c0,4.2-6.2,4.2-6.2,0v-5h0.6v5c0,3.5,5,3.5,5,0v-5H178.5z"/>
	<path class="st0" d="M187.4,222.1c-0.7-0.7-1.7-1-2.6-1c-2.4,0-3.6,1.7-3.6,3.6c0,1.9,1.2,3.5,3.6,3.5c0.9,0,1.8-0.3,2.5-0.9V225
		h-2.8v-0.5h3.4v3c-0.8,0.8-1.8,1.3-3,1.3c-2.7,0-4.2-1.9-4.2-4.1c0-2.5,1.7-4.2,4.2-4.2c1.1,0,2.1,0.4,3,1.2L187.4,222.1z"/>
	<path class="st0" d="M195.9,228.7V225h-5.1v3.7h-0.6v-8.1h0.6v3.8h5.1v-3.8h0.6v8.1H195.9z"/>
	<path class="st0" d="M204.2,221.2h-2.9v-0.6h6.5v0.6h-2.9v7.5h-0.6V221.2z"/>
	<path class="st0" d="M215.1,228.7l-0.9-2h-4.8l-0.9,2h-0.7l3.6-8.1h0.7l3.6,8.1H215.1z M214,226.1l-2.2-4.9l-2.2,4.9H214z"/>
	<path class="st0" d="M224.1,228.7h-0.8l-2.8-3.1h-2.2v3.1h-0.6v-8.1c1.2,0,2.4,0,3.6,0c1.8,0,2.6,1.3,2.7,2.5
		c0,1.3-0.9,2.5-2.6,2.5L224.1,228.7z M218.3,225h2.9c1.4,0,2-0.8,2-1.9c0-0.9-0.6-1.9-2-1.9h-2.9V225z"/>
	<path class="st0" d="M232.4,222.1c-0.7-0.7-1.7-1-2.6-1c-2.4,0-3.6,1.7-3.6,3.6c0,1.9,1.2,3.5,3.6,3.5c0.9,0,1.8-0.3,2.5-0.9V225
		h-2.8v-0.5h3.4v3c-0.8,0.8-1.8,1.3-3,1.3c-2.7,0-4.2-1.9-4.2-4.1c0-2.5,1.7-4.2,4.2-4.2c1.1,0,2.1,0.4,3,1.2L232.4,222.1z"/>
	<path class="st0" d="M235.8,224.3h4.7v0.6h-4.7v3.2h5.1v0.6h-5.7v-8.1h5.6v0.6h-5V224.3z"/>
	<path class="st0" d="M245.1,221.2h-2.9v-0.6h6.5v0.6h-2.9v7.5h-0.6V221.2z"/>
	<path class="st0" d="M251,224.3h4.7v0.6H251v3.2h5.1v0.6h-5.7v-8.1h5.6v0.6h-5V224.3z"/>
	<path class="st0" d="M265.2,224.6c0,2.1-1.3,4.1-4.1,4.1c-0.9,0-1.8,0-2.7,0v-8.1c0.9,0,1.8,0,2.7,0
		C263.8,220.6,265.1,222.6,265.2,224.6z M259,221.2v6.9h2.1c2.4,0,3.5-1.8,3.5-3.5c0-1.7-1.1-3.4-3.5-3.4H259z"/>
</g>
<text transform="matrix(1 0 0 1 269.6446 228.6815)" class="st0 st1 st2"> </text>
<g>
	<g>
		<path class="st0" d="M31.1,242.5l-0.9-2h-4.8l-0.9,2h-0.7l3.6-8.1h0.7l3.6,8.1H31.1z M29.9,240l-2.2-4.9l-2.2,4.9H29.9z"/>
		<path class="st0" d="M34.2,239.7v2.8h-0.6v-8.1c1.2,0,2.4,0,3.5,0c3.5,0,3.5,5.3,0,5.3H34.2z M34.2,235v4.1h2.9
			c2.7,0,2.7-4.1,0-4.1H34.2z"/>
		<path class="st0" d="M42.4,239.7v2.8h-0.6v-8.1c1.2,0,2.4,0,3.5,0c3.5,0,3.5,5.3,0,5.3H42.4z M42.4,235v4.1h2.9
			c2.7,0,2.7-4.1,0-4.1H42.4z"/>
		<path class="st0" d="M50.6,234.4v7.5h4.5v0.6H50v-8.1H50.6z"/>
		<path class="st0" d="M56.9,242.5v-8.1h0.6v8.1H56.9z"/>
		<path class="st0" d="M66.8,241.4c-0.8,0.8-1.9,1.2-2.9,1.2c-2.7,0-4.1-1.9-4.2-4.1c0-2.2,1.4-4.2,4.2-4.2c1.1,0,2.1,0.4,2.9,1.2
			l-0.4,0.4c-0.7-0.7-1.6-1-2.5-1c-2.4,0-3.6,1.7-3.6,3.6c0,1.9,1.2,3.5,3.6,3.5c0.9,0,1.8-0.3,2.5-1L66.8,241.4z"/>
		<path class="st0" d="M75.3,242.5l-0.9-2h-4.8l-0.9,2H68l3.6-8.1h0.7l3.6,8.1H75.3z M74.1,240L72,235l-2.2,4.9H74.1z"/>
		<path class="st0" d="M79,235h-2.9v-0.6h6.5v0.6h-2.9v7.5H79V235z"/>
		<path class="st0" d="M84.3,242.5v-8.1h0.6v8.1H84.3z"/>
		<path class="st0" d="M95.3,238.5c0,2.1-1.4,4.2-4.1,4.2s-4.1-2.1-4.1-4.2c0-2.2,1.3-4.2,4.1-4.2C93.9,234.3,95.3,236.3,95.3,238.5
			z M87.7,238.5c0,1.8,1.2,3.6,3.5,3.6c2.3,0,3.5-1.8,3.5-3.6c0-1.9-1.2-3.6-3.5-3.6C88.9,234.9,87.7,236.6,87.7,238.5z"/>
		<path class="st0" d="M97.7,234.4l5.4,6.7v-6.7h0.6v8.1h-0.2l-5.4-6.7v6.7h-0.6v-8.1H97.7z"/>
		<path class="st0" d="M111.6,236c-0.6-0.9-1.5-1.1-2.4-1.1c-0.9,0-2.4,0.3-2.4,1.6c0,1,1.1,1.3,2.5,1.5c1.6,0.3,3.2,0.6,3.2,2.3
			c0,1.8-1.8,2.3-3.2,2.3c-1.3,0-2.7-0.5-3.3-1.8l0.6-0.3c0.5,1,1.8,1.5,2.8,1.5s2.6-0.3,2.6-1.7c0-1.2-1.3-1.5-2.7-1.7
			c-1.5-0.3-3-0.6-3-2.1c0-1.7,1.7-2.2,3.1-2.2c1.2,0,2.2,0.2,3,1.4L111.6,236z"/>
		<path class="st0" d="M125.5,238.5c0,2.1-1.4,4.2-4.1,4.2s-4.1-2.1-4.1-4.2c0-2.2,1.3-4.2,4.1-4.2
			C124.2,234.3,125.5,236.3,125.5,238.5z M118,238.5c0,1.8,1.2,3.6,3.5,3.6c2.3,0,3.5-1.8,3.5-3.6c0-1.9-1.2-3.6-3.5-3.6
			C119.1,234.9,118,236.6,118,238.5z"/>
		<path class="st0" d="M128.3,238.3h4.6v0.6h-4.6v3.7h-0.6v-8.1h5.4v0.6h-4.8V238.3z"/>
	</g>
	<g>
		<path class="st0" d="M143,236.4c-0.5-0.5-1.2-0.7-1.9-0.7c-0.8,0-1.4,0.3-1.4,0.9c0,0.7,0.7,0.9,1.7,1c1.6,0.1,3.1,0.8,3.1,2.6
			c0,1.8-1.7,2.6-3.4,2.6c-1.4,0-2.8-0.5-3.5-1.7l1.1-1.1c0.6,0.8,1.6,1.1,2.5,1.1c1,0,1.6-0.4,1.6-1c0-0.7-0.5-1-1.6-1.1
			c-1.7-0.2-3.2-0.6-3.2-2.5c0-1.6,1.5-2.5,3.2-2.5c1.2,0,2.2,0.3,3,1.2L143,236.4z"/>
		<path class="st0" d="M152.4,242.5h-6.1c0-2.7,0-5.4,0-8.1h6v1.6H148v1.6h4v1.6h-4v1.6h4.4V242.5z"/>
		<path class="st0" d="M156.1,234.4v6.4h4v1.6h-5.8v-8.1H156.1z"/>
	</g>
	<path class="st0" d="M165.9,239.7v2.8h-0.6v-8.1c1.2,0,2.4,0,3.5,0c3.5,0,3.5,5.3,0,5.3H165.9z M165.9,235v4.1h2.9
		c2.7,0,2.7-4.1,0-4.1H165.9z"/>
	<path class="st0" d="M179.8,242.5H179l-2.8-3.1H174v3.1h-0.6v-8.1c1.2,0,2.4,0,3.6,0c1.8,0,2.6,1.3,2.7,2.5c0,1.3-0.9,2.5-2.6,2.5
		L179.8,242.5z M174,238.9h2.9c1.4,0,2-0.8,2-1.9c0-0.9-0.6-1.9-2-1.9H174V238.9z"/>
	<path class="st0" d="M181.9,242.5v-8.1h0.6v8.1H181.9z"/>
	<path class="st0" d="M185.5,234.4l5.4,6.7v-6.7h0.6v8.1h-0.2l-5.4-6.7v6.7h-0.6v-8.1H185.5z"/>
	<path class="st0" d="M200.9,241.4c-0.8,0.8-1.9,1.2-2.9,1.2c-2.7,0-4.1-1.9-4.2-4.1c0-2.2,1.4-4.2,4.2-4.2c1.1,0,2.1,0.4,2.9,1.2
		l-0.4,0.4c-0.7-0.7-1.6-1-2.5-1c-2.4,0-3.6,1.7-3.6,3.6c0,1.9,1.2,3.5,3.6,3.5c0.9,0,1.8-0.3,2.5-1L200.9,241.4z"/>
	<path class="st0" d="M203,242.5v-8.1h0.6v8.1H203z"/>
	<path class="st0" d="M207,239.7v2.8h-0.6v-8.1c1.2,0,2.4,0,3.5,0c3.5,0,3.5,5.3,0,5.3H207z M207,235v4.1h2.9c2.7,0,2.7-4.1,0-4.1
		H207z"/>
	<path class="st0" d="M215.1,234.4v7.5h4.5v0.6h-5.2v-8.1H215.1z"/>
	<path class="st0" d="M222.1,238.2h4.7v0.6h-4.7v3.2h5.1v0.6h-5.7v-8.1h5.6v0.6h-5V238.2z"/>
	<path class="st0" d="M234.4,236c-0.6-0.9-1.5-1.1-2.4-1.1c-0.9,0-2.4,0.3-2.4,1.6c0,1,1.1,1.3,2.5,1.5c1.6,0.3,3.2,0.6,3.2,2.3
		c0,1.8-1.8,2.3-3.2,2.3c-1.3,0-2.7-0.5-3.3-1.8l0.6-0.3c0.5,1,1.8,1.5,2.8,1.5s2.6-0.3,2.6-1.7c0-1.2-1.3-1.5-2.7-1.7
		c-1.5-0.3-3-0.6-3-2.1c0-1.7,1.7-2.2,3.1-2.2c1.2,0,2.2,0.2,3,1.4L234.4,236z"/>
	<path class="st0" d="M237.8,242.2c0,0.6-0.9,0.6-0.9,0C236.9,241.6,237.8,241.6,237.8,242.2z"/>
	<g>
		<path class="st0" d="M26,79.6v-21h4.6v21H26z"/>
		<path class="st0" d="M51.1,72.3l-0.3-6.6v-7h4.7v21h-4L41,66.2l0.2,6.9v6.5h-4.7v-21h4L51.1,72.3z"/>
		<path class="st0" d="M73.7,63.7c-1.2-1.2-3.2-1.8-4.9-1.8c-2.1,0-3.7,0.9-3.7,2.3c0,1.9,1.8,2.3,4.5,2.5c4.1,0.4,8.1,1.9,8.1,6.8
			c0,4.7-4.3,6.7-8.8,6.7c-3.6,0-7.4-1.4-9.2-4.3l2.8-2.9c1.6,2.1,4.3,3,6.4,3c2.5,0,4.2-1,4.2-2.5c0-1.8-1.4-2.6-4.2-2.8
			c-4.4-0.4-8.4-1.5-8.3-6.5c0-4.2,4-6.4,8.3-6.4c3.2,0,5.7,0.7,7.8,3.2L73.7,63.7z"/>
		<path class="st0" d="M86.7,62.8h-6.4v-4.2c6.1,0,11.3,0,17.4,0v4.2h-6.4v16.8h-4.6V62.8z"/>
		<path class="st0" d="M101.7,79.6v-21h4.6v21H101.7z"/>
		<path class="st0" d="M116.8,62.8h-6.4v-4.2c6.1,0,11.3,0,17.4,0v4.2h-6.4v16.8h-4.6V62.8z"/>
		<path class="st0" d="M150.6,58.7v11.7c0,6.2-3.5,9.6-9,9.7c-5.5,0.2-10.1-3-10.1-9.7V58.7h4.6v11.7c0,3.7,2.1,5.7,5.5,5.5
			c3.2-0.2,4.3-2.4,4.3-5.5V58.7H150.6z"/>
		<path class="st0" d="M160.7,62.8h-6.4v-4.2c6.1,0,11.3,0,17.4,0v4.2h-6.4v16.8h-4.6V62.8z"/>
	</g>
	<g>
		<path class="st0" d="M34.6,88.6C41.8,88.6,45,93.5,45,99c0,5.5-3.1,10.6-10.4,10.6c-2.6,0-6,0-8.6,0v-21H34.6z M30.6,105.3h4
			c4.6,0,5.8-3.4,5.8-6.4s-1.4-6.1-5.8-6.1h-4V105.3z"/>
		<path class="st0" d="M50,88.6h4.4l-2.5,7.3h-3.4L50,88.6z"/>
		<path class="st0" d="M74.4,109.6h-16c0-7,0-14,0-21H74v4.3h-11v4h10.3v4.1H63.1v4.2h11.4V109.6z M71.3,82.2h-5l-2.2,4.2v0.2h3.8
			l3.5-4.2V82.2z"/>
		<path class="st0" d="M87.9,88.6c7.2,0,10.4,4.9,10.4,10.3c0,5.5-3.1,10.6-10.4,10.6c-2.6,0-6,0-8.6,0v-21H87.9z M83.9,105.3h4
			c4.6,0,5.8-3.4,5.8-6.4s-1.4-6.1-5.8-6.1h-4V105.3z"/>
		<path class="st0" d="M121.9,88.7v11.7c0,6.2-3.5,9.6-9,9.7c-5.5,0.2-10.1-3-10.1-9.7V88.7h4.6v11.7c0,3.7,2.1,5.7,5.5,5.5
			c3.2-0.2,4.3-2.4,4.3-5.5V88.7H121.9z"/>
		<path class="st0" d="M145.5,107.1c-2.2,2.1-4.9,3.1-8.1,3.1c-8,0-11.2-5.2-11.2-10.9c0-5.4,3.5-11.1,11.2-11.1
			c2.9,0,5.5,1.1,7.7,3.2l-2.9,2.9c-1.3-1.2-3.1-1.7-4.8-1.7c-4.8,0-6.6,3.7-6.6,6.7s1.7,6.5,6.6,6.5c1.7,0,3.9-0.7,5.2-2
			L145.5,107.1z"/>
		<path class="st0" d="M164.3,106h-10.8l-1.5,3.6h-5l9.4-21h5.1l9.4,21h-5.1L164.3,106z M159,93.4l-3.6,8.5h7.2L159,93.4z"/>
		<path class="st0" d="M177,92.8h-6.4v-4.2c6.1,0,11.3,0,17.4,0v4.2h-6.4v16.8H177V92.8z"/>
		<path class="st0" d="M192.1,109.6v-21h4.6v21H192.1z"/>
		<path class="st0" d="M212.7,110.1c-6.7,0-11.3-4.2-11.3-11s4.6-11,11.3-11c6.7,0,11.3,4.2,11.3,11S219.4,110.1,212.7,110.1z
			 M212.7,92.3c-4,0-6.7,3-6.7,6.8c0,3.9,2.8,6.8,6.7,6.8c4.1,0,6.7-2.9,6.7-6.8C219.4,95.3,216.8,92.3,212.7,92.3z"/>
		<path class="st0" d="M243.3,102.3l-0.3-6.6v-7h4.7v21h-4l-10.4-13.4l0.2,6.9v6.5h-4.7v-21h4L243.3,102.3z"/>
	</g>
	<path class="st0" d="M38.4,123.7c-1.2-1.2-3.2-1.8-4.9-1.8c-2.1,0-3.7,0.9-3.7,2.3c0,1.9,1.8,2.3,4.5,2.5c4.1,0.4,8.1,1.9,8.1,6.8
		c0,4.7-4.3,6.7-8.8,6.7c-3.6,0-7.4-1.4-9.2-4.3l2.8-2.9c1.6,2.1,4.3,3,6.4,3c2.5,0,4.2-1,4.2-2.5c0-1.8-1.4-2.6-4.2-2.8
		c-4.4-0.4-8.4-1.5-8.3-6.5c0-4.2,4-6.4,8.3-6.4c3.2,0,5.7,0.7,7.8,3.2L38.4,123.7z"/>
	<path class="st0" d="M56.9,140.1c-6.7,0-11.3-4.2-11.3-11c0-6.8,4.6-11,11.3-11s11.3,4.2,11.3,11C68.2,136,63.6,140.1,56.9,140.1z"
		/>
	<path class="st0" d="M56.9,122.3c-4,0-6.7,3-6.7,6.8c0,3.9,2.8,6.8,6.7,6.8c4.1,0,6.7-2.9,6.7-6.8C63.7,125.3,61,122.3,56.9,122.3z
		"/>
	<path class="st0" d="M91,137.1c-2.2,2.1-4.9,3.1-8.1,3.1c-8,0-11.2-5.2-11.2-10.9c0-5.4,3.5-11.1,11.2-11.1c2.9,0,5.5,1.1,7.7,3.2
		l-2.9,2.9c-1.3-1.2-3.1-1.7-4.8-1.7c-4.8,0-6.6,3.7-6.6,6.7c0,3.1,1.7,6.5,6.6,6.5c1.7,0,3.9-0.7,5.2-2L91,137.1z"/>
	<rect x="94.9" y="118.6" class="st0" width="4.6" height="21"/>
	<path class="st0" d="M115.5,140.1c-6.7,0-11.3-4.2-11.3-11c0-6.8,4.6-11,11.3-11s11.3,4.2,11.3,11
		C126.9,136,122.2,140.1,115.5,140.1z"/>
	<path class="st0" d="M115.5,122.3c-4,0-6.7,3-6.7,6.8c0,3.9,2.8,6.8,6.7,6.8c4.1,0,6.7-2.9,6.7-6.8
		C122.3,125.3,119.6,122.3,115.5,122.3z"/>
	<g>
		<path class="st0" d="M42,169.6H26c0-7,0-14,0-21h15.6v4.3h-11v4h10.3v4.1H30.6v4.2H42V169.6z"/>
		<path class="st0" d="M65.1,155l-6.5,8.2h-0.8l-6.3-8.2v14.7h-4.7v-21c1.8,0,3.6,0,5.4,0l6.1,8.1l6.1-8.1h5.3v21h-4.7V155z"/>
		<path class="st0" d="M85.8,170.1c-6.7,0-11.3-4.2-11.3-11s4.6-11,11.3-11s11.3,4.2,11.3,11S92.5,170.1,85.8,170.1z M85.8,152.3
			c-4,0-6.7,3-6.7,6.8c0,3.9,2.8,6.8,6.7,6.8c4.1,0,6.7-2.9,6.7-6.8C92.5,155.3,89.8,152.3,85.8,152.3z"/>
		<path class="st0" d="M105.9,152.8h-6.4v-4.2c6.1,0,11.3,0,17.4,0v4.2h-6.4v16.8h-4.6V152.8z"/>
		<path class="st0" d="M121,169.6v-21h4.6v21H121z"/>
		<path class="st0" d="M141.6,170.1c-6.7,0-11.3-4.2-11.3-11s4.6-11,11.3-11s11.3,4.2,11.3,11S148.3,170.1,141.6,170.1z
			 M141.6,152.3c-4,0-6.7,3-6.7,6.8c0,3.9,2.8,6.8,6.7,6.8c4.1,0,6.7-2.9,6.7-6.8C148.4,155.3,145.7,152.3,141.6,152.3z"/>
		<path class="st0" d="M172.2,162.3l-0.3-6.6v-7h4.7v21h-4l-10.4-13.4l0.2,6.9v6.5h-4.7v-21h4L172.2,162.3z"/>
		<path class="st0" d="M198.4,169.6h-16c0-7,0-14,0-21H198v4.3h-11v4h10.3v4.1H187v4.2h11.4V169.6z"/>
		<path class="st0" d="M207.9,148.6v16.7h10.5v4.3h-15.2v-21H207.9z"/>
		<path class="st0" d="M227.1,148.6v16.7h10.5v4.3h-15.2v-21H227.1z"/>
		<path class="st0" d="M257.6,169.6h-16c0-7,0-14,0-21h15.6v4.3h-11v4h10.3v4.1h-10.3v4.2h11.4V169.6z"/>
	</g>
</g>
<rect x="23.4" y="185.8" class="st0" width="241.9" height="2.6"/>
</svg>
